<svg xmlns="http://www.w3.org/2000/svg" viewBox="0 0 261.66 160.93"><defs><style>.cls-1{fill:#606060;}.cls-2{fill:#9e9e9e;}.cls-3{fill:#ffb531;}.cls-4{fill:#bfbfbf;}.cls-5{fill:#2da1ad;}.cls-6{fill:#5fc8d3;}.cls-7{fill:#e09b63;}.cls-8{fill:#cc6a48;}.cls-9{fill:#ffbc8a;}.cls-10{fill:#2b2b2b;}.cls-11{fill:#444;}.cls-12{fill:#91e0ed;}</style></defs><g id="Capa_2" data-name="Capa 2"><g id="Layer_1" data-name="Layer 1"><path d="M113.38,123.21a2,2,0,0,1-.54-.07,2.2,2.2,0,0,1-1.6-2.67l5.51-22A2.2,2.2,0,0,1,121,99.59l-5.51,22A2.2,2.2,0,0,1,113.38,123.21Z"/><path d="M125.54,98.72a2.94,2.94,0,0,1-2.93,2.94H114.4a2.94,2.94,0,0,1,0-5.87h8.21A2.94,2.94,0,0,1,125.54,98.72Z"/><path class="cls-1" d="M122.61,95.79H114.4a2.94,2.94,0,0,0-2.93,2.93h14.07A2.94,2.94,0,0,0,122.61,95.79Z"/><path class="cls-2" d="M111.88,97.26h13.25a2.94,2.94,0,0,0-2.52-1.47H114.4A2.94,2.94,0,0,0,111.88,97.26Z"/><path class="cls-3" d="M207,44.11l-.27,0V56.48l.27,0a6.2,6.2,0,0,0,0-12.39Z"/><path class="cls-4" d="M190.8,22,187,18.63A30.1,30.1,0,0,1,199.85,11c2.78-.87,3.87-2.48,3.69-3.61s-1.3-1.64-2.92-1.64H172.73V.64h27.89c4.89,0,7.55,3,8,6,.51,3.35-1.53,7.51-7.24,9.3A25.5,25.5,0,0,0,190.8,22Z"/><path class="cls-2" d="M208.14,10.38a6.46,6.46,0,0,0-.07-1.17c-.45-3-3.11-6-8-6H172.73V5.78h27.89c1.62,0,2.77.64,2.92,1.64s-.91,2.74-3.69,3.61A30.1,30.1,0,0,0,187,18.63L190.8,22a25.5,25.5,0,0,1,10.58-6.1C205.06,14.79,207.21,12.65,208.14,10.38Z"/><path class="cls-5" d="M86.13,70.73a3,3,0,0,1-1.91-.7L71.84,59.47H22.52a2.94,2.94,0,0,1,0-5.87H74l14,12a2.94,2.94,0,0,1-1.9,5.17Z"/><path class="cls-6" d="M72.92,56.54,86.13,67.79l2,2.14a1.9,1.9,0,0,0,.25-.24A2.92,2.92,0,0,0,88,65.56l-14-12H22.52a2.94,2.94,0,0,0-2.93,2.94H72.92Z"/><rect class="cls-6" x="160.57" y="58.04" width="6.6" height="10.35" transform="translate(-10.56 83.81) rotate(-27.83)"/><path class="cls-5" d="M113.34,117.91l-.71-6.57c.13,0,13.42-1.62,21.22-12.45l1.61-2.24c8.2-11.44,16.69-23.27,30-32.33,14.46-9.81,30.73-8.92,31.41-8.88L196.5,62c-.14,0-14.75-.76-27.3,7.75-12.37,8.4-20.15,19.23-28.38,30.71l-1.61,2.25C129.65,116,114,117.84,113.34,117.91Z"/><path class="cls-6" d="M165.5,64.32c-13.35,9.06-21.84,20.89-30,32.33l-1.61,2.24c-7.8,10.83-21.09,12.44-21.22,12.45l.36,3.29h0s14.73-1.58,23.54-13.81,17.12-24.47,30.82-33.76,29.36-8.32,29.36-8.32l.2-3.3C196.23,55.4,180,54.51,165.5,64.32Z"/><path class="cls-5" d="M114.14,84.19a53.38,53.38,0,0,1-8.52-.67l1.13-6.5c.1,0,10.14,1.7,16.87-.82C134.91,72,190.46,36.74,191,36.38L194.56,42c-2.31,1.46-56.69,35.95-68.62,40.42A34.49,34.49,0,0,1,114.14,84.19Z"/><path class="cls-6" d="M192.79,39.17,191,36.38c-.56.36-56.11,35.58-67.4,39.82-6.73,2.52-16.77.83-16.87.82l-.56,3.25h0s10.91,1.9,18.59-1C136.52,74.89,192.79,39.17,192.79,39.17Z"/><polygon class="cls-2" points="189.34 35.94 186.04 17.91 191.08 16.91 194.38 34.94 189.34 35.94"/><rect class="cls-4" x="171.37" y="112.15" width="80.04" height="0.99"/><rect class="cls-4" x="171.37" y="108.18" width="80.04" height="0.99"/><rect class="cls-4" x="212.88" y="70.64" width="0.99" height="80.04"/><rect class="cls-4" x="208.91" y="70.64" width="0.99" height="80.04"/><rect class="cls-4" x="212.73" y="69.88" width="0.99" height="80.04" transform="translate(-25.83 89.96) rotate(-22.5)"/><rect class="cls-4" x="209.06" y="71.4" width="0.99" height="80.04" transform="translate(-26.69 88.67) rotate(-22.5)"/><rect class="cls-4" x="212.3" y="69.24" width="0.99" height="80.04" transform="translate(-14.93 182.47) rotate(-45)"/><rect class="cls-4" x="209.49" y="72.04" width="0.99" height="80.04" transform="translate(-17.74 181.31) rotate(-45)"/><rect class="cls-4" x="211.65" y="68.81" width="0.99" height="80.04" transform="translate(30.42 263.18) rotate(-67.5)"/><rect class="cls-4" x="210.13" y="72.47" width="0.99" height="80.04" transform="matrix(0.38, -0.92, 0.92, 0.38, 26.1, 264.04)"/><rect class="cls-4" x="172.13" y="112" width="80.04" height="0.99" transform="translate(-26.9 89.75) rotate(-22.5)"/><rect class="cls-4" x="170.61" y="108.33" width="80.04" height="0.99" transform="translate(-25.61 88.89) rotate(-22.5)"/><rect class="cls-4" x="172.77" y="111.57" width="80.04" height="0.99" transform="translate(-16.92 183.29) rotate(-45)"/><rect class="cls-4" x="169.97" y="108.76" width="80.04" height="0.99" transform="translate(-15.75 180.48) rotate(-45)"/><rect class="cls-4" x="173.2" y="110.92" width="80.04" height="0.99" transform="translate(28.69 265.78) rotate(-67.5)"/><rect class="cls-4" x="169.54" y="109.4" width="80.04" height="0.99" transform="translate(27.83 261.45) rotate(-67.5)"/><path class="cls-7" d="M211.39,60.39a50.27,50.27,0,1,0,50.27,50.27A50.27,50.27,0,0,0,211.39,60.39Zm0,89a38.69,38.69,0,1,1,38.69-38.69A38.69,38.69,0,0,1,211.39,149.35Z"/><path class="cls-8" d="M211.39,67.17a43.49,43.49,0,1,0,43.49,43.49A43.49,43.49,0,0,0,211.39,67.17Zm0,82.18a38.69,38.69,0,1,1,38.69-38.69A38.69,38.69,0,0,1,211.39,149.35Z"/><path class="cls-4" d="M211.39,69.18a41.48,41.48,0,1,0,41.48,41.48A41.48,41.48,0,0,0,211.39,69.18Zm0,80.17a38.69,38.69,0,1,1,38.69-38.69A38.69,38.69,0,0,1,211.39,149.35Z"/><path class="cls-9" d="M209.72,62.65l1.67,0,1.67,0v2c-.55,0-1.11,0-1.67,0s-1.12,0-1.67,0Z"/><path class="cls-9" d="M219.05,65.28c-1.09-.18-2.2-.33-3.32-.43l.27-2c1.1.11,2.22.25,3.31.44Z"/><path class="cls-9" d="M235.83,71.68c-.94-.59-1.91-1.15-2.9-1.68l1-1.74c1,.52,1.95,1.09,2.89,1.68Z"/><path class="cls-9" d="M240.7,75.21c-.86-.72-1.75-1.4-2.65-2l1.23-1.6c.9.65,1.79,1.33,2.65,2Z"/><path class="cls-9" d="M230.54,68.81c-1-.46-2-.89-3.09-1.28l.77-1.87c1,.39,2.07.83,3.09,1.29Z"/><path class="cls-9" d="M224.91,66.67c-1.07-.34-2.15-.63-3.23-.87l.52-1.95c1.09.26,2.18.55,3.23.87Z"/><path class="cls-9" d="M180.85,73.61c.86-.71,1.75-1.39,2.66-2l1.22,1.6c-.9.64-1.78,1.32-2.65,2Z"/><path class="cls-9" d="M172.3,82.78c.65-.91,1.33-1.8,2-2.66l1.6,1.23c-.72.86-1.4,1.75-2,2.65Z"/><path class="cls-9" d="M203.46,63.29c1.1-.19,2.22-.33,3.32-.44l.27,2c-1.12.1-2.23.25-3.32.43Z"/><path class="cls-9" d="M186,69.94c.94-.59,1.91-1.16,2.89-1.68l1,1.74c-1,.53-2,1.09-2.9,1.68Z"/><path class="cls-9" d="M191.47,67c1-.47,2.06-.9,3.09-1.29l.78,1.87c-1.06.39-2.1.82-3.1,1.28Z"/><path class="cls-9" d="M248.89,84c-.65-.9-1.33-1.79-2-2.65l1.6-1.23c.71.86,1.39,1.75,2,2.66Z"/><path class="cls-9" d="M176.27,77.91c.76-.81,1.55-1.61,2.37-2.37L180.07,77c-.82.75-1.61,1.55-2.37,2.36Z"/><path class="cls-9" d="M178.64,145.78q-1.23-1.14-2.37-2.37L177.7,142c.76.82,1.55,1.61,2.36,2.36Z"/><path class="cls-9" d="M163.38,112.33c0-.58,0-1.13,0-1.67s0-1.09,0-1.67h2c0,.56,0,1.12,0,1.67s0,1.11,0,1.67Z"/><path class="cls-9" d="M242.72,144.35c.81-.75,1.61-1.55,2.36-2.36l1.43,1.42q-1.14,1.23-2.37,2.37Z"/><path class="cls-9" d="M257.39,112.33c0-.56,0-1.12,0-1.67s0-1.11,0-1.67h2c0,.58,0,1.13,0,1.67s0,1.09,0,1.67Z"/><path class="cls-9" d="M245.08,79.33c-.75-.81-1.55-1.61-2.36-2.36l1.42-1.43c.82.76,1.61,1.56,2.37,2.37Z"/><path class="cls-9" d="M169,88.11c.52-1,1.09-2,1.68-2.89l1.74,1c-.59.94-1.15,1.91-1.68,2.9Z"/><path class="cls-9" d="M254.53,94.6c-.4-1-.83-2.09-1.29-3.09l1.86-.77c.47,1,.9,2.06,1.29,3.09Z"/><path class="cls-9" d="M252.05,89.12c-.52-1-1.09-2-1.68-2.9l1.74-1c.59.94,1.16,1.91,1.68,2.89Z"/><path class="cls-9" d="M257.21,106.32c-.11-1.12-.25-2.23-.44-3.32l2-.27c.18,1.1.32,2.21.43,3.32Z"/><path class="cls-9" d="M256.25,100.37c-.24-1.08-.53-2.16-.86-3.23l1.94-.52c.33,1.06.62,2.14.87,3.23Z"/><path class="cls-9" d="M197.35,64.72c1.06-.32,2.14-.61,3.23-.87l.52,1.95c-1.08.24-2.16.54-3.23.87Z"/><path class="cls-9" d="M227.45,153.8c1.05-.4,2.09-.83,3.09-1.29l.77,1.86q-1.53.7-3.09,1.29Z"/><path class="cls-9" d="M232.93,151.32c1-.53,2-1.09,2.9-1.68l1,1.74c-.94.6-1.91,1.16-2.89,1.68Z"/><path class="cls-9" d="M238.05,148.16c.9-.64,1.79-1.33,2.65-2l1.23,1.6c-.86.71-1.75,1.39-2.65,2Z"/><path class="cls-9" d="M221.68,155.53c1.08-.25,2.16-.54,3.23-.87l.52,1.94c-1.06.33-2.14.62-3.23.87Z"/><path class="cls-9" d="M211.39,158.71c-.54,0-1.09,0-1.67,0v-2l1.67,0,1.67,0v2C212.48,158.7,211.93,158.71,211.39,158.71Z"/><path class="cls-9" d="M215.74,156.47c1.11-.1,2.22-.25,3.31-.43l.27,2c-1.1.18-2.21.33-3.32.43Z"/><path class="cls-9" d="M255.39,124.18c.33-1.07.62-2.16.87-3.23l1.94.52c-.25,1.09-.54,2.18-.87,3.23Z"/><path class="cls-9" d="M256.77,118.32c.19-1.1.33-2.21.44-3.32l2,.27c-.11,1.11-.25,2.22-.43,3.31Z"/><path class="cls-9" d="M206.79,158.47c-1.12-.1-2.23-.25-3.32-.43l.26-2c1.09.18,2.2.33,3.32.43Z"/><path class="cls-9" d="M166.39,93.83c.39-1,.82-2.07,1.29-3.09l1.86.77c-.46,1-.89,2-1.28,3.1Z"/><path class="cls-9" d="M246.84,140c.72-.87,1.41-1.75,2-2.65l1.59,1.22c-.65.91-1.33,1.8-2,2.66Z"/><path class="cls-9" d="M250.37,135.1c.59-.94,1.16-1.91,1.68-2.9l1.74,1c-.52,1-1.08,1.94-1.67,2.89Z"/><path class="cls-9" d="M253.25,129.81c.45-1,.88-2,1.28-3.1l1.86.78c-.39,1-.82,2.08-1.29,3.09Z"/><path class="cls-9" d="M165.45,124.7c-.33-1.06-.62-2.14-.87-3.23l1.95-.52c.24,1.07.53,2.16.87,3.23Z"/><path class="cls-9" d="M164,118.58c-.18-1.09-.32-2.2-.43-3.31l2-.27c.1,1.12.25,2.23.43,3.32Z"/><path class="cls-9" d="M164.58,99.85c.25-1.09.54-2.17.87-3.23l2,.52c-.33,1.07-.63,2.15-.87,3.23Z"/><path class="cls-9" d="M163.58,106.05c.11-1.11.25-2.22.43-3.32l2,.27c-.18,1.09-.33,2.2-.43,3.32Z"/><path class="cls-9" d="M167.68,130.58c-.47-1-.9-2.06-1.29-3.09l1.86-.78c.4,1.07.83,2.1,1.29,3.1Z"/><path class="cls-9" d="M183.51,149.75c-.91-.65-1.8-1.33-2.66-2l1.23-1.6c.87.72,1.75,1.41,2.65,2Z"/><path class="cls-9" d="M194.56,155.66q-1.56-.58-3.09-1.29l.77-1.86c1,.46,2,.89,3.09,1.29Z"/><path class="cls-9" d="M170.67,136.1c-.6-.95-1.16-1.92-1.68-2.89l1.74-1c.53,1,1.09,2,1.68,2.9Z"/><path class="cls-9" d="M188.84,153.06c-1-.52-2-1.08-2.89-1.68l1-1.74c.94.59,1.91,1.15,2.9,1.68Z"/><path class="cls-9" d="M174.34,141.2c-.71-.86-1.39-1.75-2-2.65l1.6-1.23c.64.9,1.32,1.79,2,2.65Z"/><path class="cls-9" d="M200.58,157.47c-1.09-.25-2.17-.54-3.23-.87l.52-1.94c1.07.33,2.16.62,3.23.87Z"/><path class="cls-2" d="M211.39,70.75a39.91,39.91,0,1,0,39.91,39.91A39.91,39.91,0,0,0,211.39,70.75Zm0,78.6a38.69,38.69,0,1,1,38.69-38.69A38.69,38.69,0,0,1,211.39,149.35Z"/><path d="M216.56,110.66a5.17,5.17,0,1,1-5.17-5.16A5.18,5.18,0,0,1,216.56,110.66Z"/><rect class="cls-4" x="10.25" y="112.15" width="80.04" height="0.99"/><rect class="cls-4" x="10.25" y="108.18" width="80.04" height="0.99"/><rect class="cls-4" x="51.76" y="70.64" width="0.99" height="80.04"/><rect class="cls-4" x="47.79" y="70.64" width="0.99" height="80.04"/><rect class="cls-4" x="51.61" y="69.88" width="0.99" height="80.04" transform="translate(-38.09 28.31) rotate(-22.5)"/><rect class="cls-4" x="47.94" y="71.4" width="0.99" height="80.04" transform="translate(-38.95 27.02) rotate(-22.5)"/><rect class="cls-4" x="51.18" y="69.24" width="0.99" height="80.04" transform="translate(-62.12 68.54) rotate(-45)"/><rect class="cls-4" x="48.37" y="72.04" width="0.99" height="80.04" transform="translate(-64.93 67.38) rotate(-45)"/><rect class="cls-4" x="50.54" y="68.81" width="0.99" height="80.04" transform="matrix(0.38, -0.92, 0.92, 0.38, -69.04, 114.33)"/><rect class="cls-4" x="49.02" y="72.47" width="0.99" height="80.04" transform="translate(-73.37 115.19) rotate(-67.5)"/><rect class="cls-4" x="11.01" y="112" width="80.04" height="0.99" transform="translate(-39.16 28.09) rotate(-22.5)"/><rect class="cls-4" x="9.49" y="108.33" width="80.04" height="0.99" transform="translate(-37.88 27.23) rotate(-22.5)"/><rect class="cls-4" x="11.66" y="111.57" width="80.04" height="0.99" transform="translate(-64.11 69.36) rotate(-45)"/><rect class="cls-4" x="8.85" y="108.76" width="80.04" height="0.99" transform="translate(-62.94 66.56) rotate(-45)"/><rect class="cls-4" x="12.09" y="110.92" width="80.04" height="0.99" transform="translate(-70.77 116.92) rotate(-67.5)"/><rect class="cls-4" x="8.42" y="109.4" width="80.04" height="0.99" transform="translate(-71.63 112.6) rotate(-67.5)"/><path class="cls-7" d="M50.27,60.39a50.27,50.27,0,1,0,50.28,50.27A50.27,50.27,0,0,0,50.27,60.39Zm0,89A38.69,38.69,0,1,1,89,110.66,38.69,38.69,0,0,1,50.27,149.35Z"/><path class="cls-8" d="M50.27,67.17a43.49,43.49,0,1,0,43.49,43.49A43.49,43.49,0,0,0,50.27,67.17Zm0,82.18A38.69,38.69,0,1,1,89,110.66,38.69,38.69,0,0,1,50.27,149.35Z"/><path class="cls-4" d="M50.27,69.18a41.48,41.48,0,1,0,41.48,41.48A41.48,41.48,0,0,0,50.27,69.18Zm0,80.17A38.69,38.69,0,1,1,89,110.66,38.69,38.69,0,0,1,50.27,149.35Z"/><path class="cls-9" d="M48.6,62.65l1.67,0,1.68,0v2q-.84,0-1.68,0l-1.67,0Z"/><path class="cls-9" d="M57.93,65.28c-1.09-.18-2.2-.33-3.31-.43l.26-2c1.11.11,2.22.25,3.32.44Z"/><path class="cls-9" d="M74.71,71.68c-.94-.59-1.91-1.15-2.9-1.68l1-1.74c1,.52,2,1.09,2.9,1.68Z"/><path class="cls-9" d="M79.59,75.21c-.87-.72-1.76-1.4-2.66-2l1.23-1.6c.9.65,1.79,1.33,2.65,2Z"/><path class="cls-9" d="M69.42,68.81c-1-.46-2-.89-3.09-1.28l.77-1.87c1,.39,2.07.83,3.09,1.29Z"/><path class="cls-9" d="M63.79,66.67c-1.07-.34-2.15-.63-3.23-.87l.52-1.95c1.09.26,2.18.55,3.23.87Z"/><path class="cls-9" d="M19.73,73.61c.86-.71,1.75-1.39,2.66-2l1.22,1.6c-.89.64-1.78,1.32-2.65,2Z"/><path class="cls-9" d="M11.18,82.78c.65-.91,1.34-1.8,2-2.66l1.6,1.23c-.72.86-1.4,1.75-2,2.65Z"/><path class="cls-9" d="M42.35,63.29c1.1-.19,2.21-.33,3.32-.44l.26,2c-1.11.1-2.23.25-3.32.43Z"/><path class="cls-9" d="M24.83,69.94c.94-.59,1.91-1.16,2.9-1.68l1,1.74c-1,.53-2,1.09-2.9,1.68Z"/><path class="cls-9" d="M30.35,67c1-.47,2.06-.9,3.1-1.29l.77,1.87c-1.06.39-2.09.82-3.1,1.28Z"/><path class="cls-9" d="M87.77,84c-.65-.9-1.33-1.79-2-2.65l1.6-1.23c.71.86,1.4,1.75,2,2.66Z"/><path class="cls-9" d="M15.15,77.91c.76-.81,1.56-1.61,2.37-2.37L19,77c-.82.75-1.61,1.55-2.37,2.36Z"/><path class="cls-9" d="M17.52,145.78c-.81-.76-1.61-1.55-2.37-2.37L16.58,142c.76.82,1.55,1.61,2.37,2.36Z"/><path class="cls-9" d="M2.26,112.33c0-.58,0-1.13,0-1.67s0-1.09,0-1.67h2c0,.56,0,1.12,0,1.67s0,1.11,0,1.67Z"/><path class="cls-9" d="M81.6,144.35c.82-.75,1.61-1.55,2.37-2.36l1.42,1.42c-.76.82-1.55,1.61-2.36,2.37Z"/><path class="cls-9" d="M96.27,112.33c0-.56,0-1.12,0-1.67s0-1.11,0-1.67h2c0,.58,0,1.13,0,1.67s0,1.09,0,1.67Z"/><path class="cls-9" d="M84,79.33c-.76-.81-1.56-1.61-2.37-2.36L83,75.54c.82.76,1.61,1.56,2.37,2.37Z"/><path class="cls-9" d="M7.87,88.11c.52-1,1.09-2,1.68-2.89l1.74,1c-.59.94-1.15,1.91-1.68,2.9Z"/><path class="cls-9" d="M93.41,94.6c-.4-1-.83-2.09-1.28-3.09L94,90.74c.47,1,.9,2.06,1.29,3.09Z"/><path class="cls-9" d="M90.93,89.12c-.52-1-1.08-2-1.68-2.9l1.75-1c.59.94,1.15,1.91,1.67,2.89Z"/><path class="cls-9" d="M96.09,106.32c-.11-1.12-.25-2.23-.44-3.32l2-.27c.18,1.1.33,2.21.43,3.32Z"/><path class="cls-9" d="M95.14,100.37c-.25-1.08-.54-2.16-.87-3.23l1.94-.52c.33,1.06.62,2.14.87,3.23Z"/><path class="cls-9" d="M36.23,64.72c1.06-.32,2.14-.61,3.23-.87L40,65.8c-1.08.24-2.16.54-3.23.87Z"/><path class="cls-9" d="M66.33,153.8q1.59-.6,3.09-1.29l.77,1.86q-1.53.7-3.09,1.29Z"/><path class="cls-9" d="M71.81,151.32c1-.53,2-1.09,2.9-1.68l1,1.74c-1,.6-1.92,1.16-2.9,1.68Z"/><path class="cls-9" d="M76.93,148.16c.9-.64,1.79-1.33,2.66-2l1.22,1.6c-.86.71-1.75,1.39-2.65,2Z"/><path class="cls-9" d="M60.56,155.53c1.08-.25,2.16-.54,3.23-.87l.53,1.94c-1.06.33-2.15.62-3.24.87Z"/><path class="cls-9" d="M50.27,158.71c-.54,0-1.09,0-1.67,0v-2l1.67,0q.84,0,1.68,0v2C51.36,158.7,50.81,158.71,50.27,158.71Z"/><path class="cls-9" d="M54.62,156.47c1.11-.1,2.22-.25,3.32-.43l.26,2c-1.1.18-2.21.33-3.32.43Z"/><path class="cls-9" d="M94.27,124.18c.33-1.07.62-2.16.87-3.23l1.94.52c-.25,1.09-.54,2.18-.86,3.23Z"/><path class="cls-9" d="M95.65,118.32c.19-1.1.33-2.21.44-3.32l2,.27c-.1,1.11-.25,2.22-.43,3.31Z"/><path class="cls-9" d="M45.67,158.47c-1.12-.1-2.23-.25-3.32-.43l.26-2c1.09.18,2.2.33,3.32.43Z"/><path class="cls-9" d="M5.27,93.83c.39-1,.82-2.07,1.29-3.09l1.86.77c-.46,1-.89,2-1.28,3.1Z"/><path class="cls-9" d="M85.73,140c.71-.87,1.4-1.75,2-2.65l1.59,1.22c-.64.91-1.33,1.8-2,2.66Z"/><path class="cls-9" d="M89.25,135.1c.59-.94,1.16-1.91,1.68-2.9l1.74,1c-.52,1-1.08,1.94-1.67,2.89Z"/><path class="cls-9" d="M92.13,129.81c.45-1,.88-2,1.28-3.1l1.86.78c-.39,1-.82,2.08-1.28,3.09Z"/><path class="cls-9" d="M4.33,124.7c-.32-1.06-.61-2.14-.87-3.23l2-.52c.24,1.07.54,2.16.87,3.23Z"/><path class="cls-9" d="M2.9,118.58c-.19-1.09-.33-2.2-.44-3.31l2-.27c.1,1.12.25,2.23.43,3.32Z"/><path class="cls-9" d="M3.46,99.85c.26-1.09.54-2.17.87-3.23l2,.52c-.33,1.07-.62,2.15-.87,3.23Z"/><path class="cls-9" d="M2.46,106.05c.11-1.11.25-2.22.44-3.32l2,.27c-.18,1.09-.33,2.2-.43,3.32Z"/><path class="cls-9" d="M6.56,130.58c-.47-1-.9-2.06-1.29-3.09l1.87-.78c.39,1.07.82,2.1,1.28,3.1Z"/><path class="cls-9" d="M22.39,149.75c-.91-.65-1.8-1.33-2.66-2l1.23-1.6c.87.72,1.75,1.41,2.65,2Z"/><path class="cls-9" d="M33.45,155.66c-1.05-.39-2.08-.82-3.1-1.29l.77-1.86c1,.46,2,.89,3.1,1.29Z"/><path class="cls-9" d="M9.55,136.1c-.6-.95-1.16-1.92-1.68-2.89l1.74-1c.53,1,1.09,2,1.68,2.9Z"/><path class="cls-9" d="M27.72,153.06c-1-.52-1.95-1.08-2.89-1.68l1-1.74c.94.59,1.91,1.15,2.9,1.68Z"/><path class="cls-9" d="M13.22,141.2c-.71-.86-1.39-1.75-2-2.65l1.6-1.23c.64.9,1.32,1.79,2,2.65Z"/><path class="cls-9" d="M39.46,157.47c-1.09-.25-2.17-.54-3.23-.87l.52-1.94c1.07.33,2.16.62,3.23.87Z"/><path class="cls-2" d="M50.27,70.75a39.91,39.91,0,1,0,39.91,39.91A39.91,39.91,0,0,0,50.27,70.75Zm0,78.6A38.69,38.69,0,1,1,89,110.66,38.69,38.69,0,0,1,50.27,149.35Z"/><path class="cls-10" d="M48.38,117.75l.32-1.43,1.22.27L49.6,118Zm1.93.43.32-1.43,3.58.8L53.9,119Zm4.3,1,.32-1.43,3.58.8-.32,1.43Zm4.3,1,.32-1.43,3.58.8-.32,1.43Zm4.3,1,.32-1.43,3.58.8-.32,1.43Zm4.29,1,.32-1.43,3.59.8-.33,1.43Zm4.3,1,.32-1.43,3.58.8-.32,1.43Zm4.3,1,.32-1.43,3.58.8-.32,1.43Zm4.3,1,.32-1.43,3.58.8L84,125.7Zm4.29,1,.32-1.43,3.58.8-.32,1.43Zm4.3,1,.32-1.43,3.58.8-.32,1.43Zm4.3,1,.32-1.43,3.58.8-.32,1.43Zm4.29,1,.33-1.43,3.58.8-.32,1.43Zm4.3,1,.32-1.43,3.58.8-.32,1.43Zm4.3,1,.32-1.43,3.58.8-.32,1.43Z"/><polygon points="50.27 102.73 51.42 101.92 52.33 103 53.64 102.52 54.24 103.79 55.64 103.67 55.88 105.05 57.27 105.3 57.14 106.69 58.41 107.29 57.93 108.61 59.01 109.51 58.2 110.66 59.01 111.81 57.93 112.71 58.41 114.03 57.14 114.63 57.27 116.03 55.88 116.27 55.64 117.65 54.24 117.53 53.64 118.8 52.33 118.32 51.42 119.4 50.27 118.59 49.12 119.4 48.22 118.32 46.9 118.8 46.31 117.53 44.91 117.65 44.66 116.27 43.28 116.03 43.4 114.63 42.13 114.03 42.61 112.71 41.53 111.81 42.34 110.66 41.53 109.51 42.61 108.61 42.13 107.29 43.4 106.69 43.28 105.3 44.66 105.05 44.91 103.67 46.31 103.79 46.9 102.52 48.22 103 49.12 101.92 50.27 102.73"/><path class="cls-11" d="M54.68,110.66a4.41,4.41,0,1,1-4.41-4.41A4.41,4.41,0,0,1,54.68,110.66Z"/><path class="cls-6" d="M211.39,114a3.3,3.3,0,0,1-2.61-1.28l-6.14-7.92a3.38,3.38,0,0,1-.62-1.38L188.23,33.6a3.3,3.3,0,1,1,6.48-1.28l13.63,69,5.66,7.31a3.3,3.3,0,0,1-.59,4.63A3.25,3.25,0,0,1,211.39,114Z"/><path class="cls-5" d="M211.39,114a3.25,3.25,0,0,0,2-.69l-8.15-10.54L192,35.42l-1.11-5.7h0a3.3,3.3,0,0,0-2.6,3.88L202,103.38a3.38,3.38,0,0,0,.62,1.38l6.14,7.92A3.3,3.3,0,0,0,211.39,114Z"/><path d="M213.06,110.66a1.67,1.67,0,1,1-1.67-1.67A1.67,1.67,0,0,1,213.06,110.66Z"/><rect class="cls-11" x="186.76" y="29.52" width="8.97" height="3.78" transform="translate(-2.48 36.95) rotate(-10.97)"/><rect class="cls-10" x="111.99" y="110.12" width="1.47" height="1.83" transform="translate(-10.28 210.58) rotate(-83.55)"/><path class="cls-10" d="M111,111.58l-3.58-.4.16-1.46,3.59.41Zm-4.3-.49-3.58-.4.17-1.46,3.58.41Zm-4.29-.48-3.59-.41.17-1.46,3.58.41Zm-4.3-.49-3.59-.41.17-1.46,3.58.41Zm-4.3-.49-3.58-.41.16-1.46,3.58.41Zm-4.3-.49-3.58-.41.16-1.46,3.58.41Zm-4.3-.49-3.58-.41.16-1.45,3.59.4Zm-4.3-.49-3.58-.41.17-1.46,3.58.41Zm-4.3-.49L73,107.26l.17-1.45,3.58.4Zm-4.29-.49-3.59-.4.17-1.46,3.58.41Zm-4.3-.49-3.58-.4.16-1.46,3.58.41Zm-4.3-.48-3.58-.41.16-1.46,3.58.41Zm-4.3-.49-3.58-.41.17-1.46,3.58.41Zm-4.3-.49-3.58-.41.17-1.46,3.58.41Z"/><rect class="cls-10" x="49.27" y="102.99" width="1.47" height="1.83" transform="translate(-58.88 141.87) rotate(-83.52)"/><path class="cls-5" d="M98.75,49.26a3.26,3.26,0,0,0-1.64,1L47.75,108.53a3.3,3.3,0,0,0,.39,4.65,3.31,3.31,0,0,0,4.65-.38l47.59-56.15Z"/><path class="cls-6" d="M98.75,49.26a3.26,3.26,0,0,0-1.64,1L47.75,108.53a3.3,3.3,0,0,0,.39,4.65l.06,0,2.07-2.57L99.49,52.6Z"/><rect class="cls-2" x="92.48" y="18.09" width="5.14" height="26.52" transform="translate(-4.49 20.88) rotate(-12.25)"/><path class="cls-5" d="M114.51,124.25a3,3,0,0,1-.52,0L49.75,113.92a3.3,3.3,0,0,1,1-6.52l59.46,9.52L94.86,46a3.3,3.3,0,1,1,6.45-1.4l16.43,75.64a3.3,3.3,0,0,1-3.23,4Z"/><path class="cls-6" d="M50.27,110.66,114.51,121,98.08,45.31l-.66-3.23h0A3.3,3.3,0,0,0,94.86,46l15.39,70.91L50.79,107.4A3.29,3.29,0,0,0,47,110.06Z"/><rect class="cls-11" x="93.3" y="42.02" width="8.97" height="3.78" transform="translate(-7.14 22) rotate(-12.39)"/><path class="cls-8" d="M84.06,14a15.34,15.34,0,0,0-3,6.6c-.42,2.73-.32,9.89,8.53,10.6,7.55.62,11.06-4.84,16.44-5.89,5.61-1.11,15-3.32,13.68-10.82a140.15,140.15,0,0,1-21.14,1.47C92.64,15.93,84.06,14,84.06,14Z"/><path class="cls-7" d="M84.06,14a16.13,16.13,0,0,0-2.54,4.7c6.78,1.91,19.22,3.18,38.31-2.83a7.47,7.47,0,0,0-.13-1.38,140.15,140.15,0,0,1-21.14,1.47C92.64,15.93,84.06,14,84.06,14Z"/><path d="M51.68,110.66a1.41,1.41,0,1,1-1.41-1.4A1.4,1.4,0,0,1,51.68,110.66Z"/><path class="cls-1" d="M113,108.51a11.76,11.76,0,1,0,11.76,11.76A11.76,11.76,0,0,0,113,108.51Zm-7.22,5.13a2.36,2.36,0,1,1,.14,3.33A2.34,2.34,0,0,1,105.77,113.64Zm.82,11.11a2.35,2.35,0,1,1,1.54-3A2.35,2.35,0,0,1,106.59,124.75Zm7.08,3.3a2.36,2.36,0,1,1-1.79-2.81A2.36,2.36,0,0,1,113.67,128.05Zm.42-12.75a2.36,2.36,0,1,1,2.82-1.79A2.36,2.36,0,0,1,114.09,115.3Zm6.12,11.6a2.36,2.36,0,1,1-.14-3.33A2.34,2.34,0,0,1,120.21,126.9Zm.59-6.62a2.35,2.35,0,1,1,1.54-3A2.35,2.35,0,0,1,120.8,120.28Z"/><path d="M118.74,120.27a5.75,5.75,0,1,1-5.75-5.75A5.75,5.75,0,0,1,118.74,120.27Z"/><path class="cls-1" d="M116.43,120.27a3.44,3.44,0,1,1-3.44-3.44A3.44,3.44,0,0,1,116.43,120.27Z"/><path d="M107.49,144.42a2.48,2.48,0,0,1-.54-.06,2.2,2.2,0,0,1-1.6-2.67l5.5-22a2.21,2.21,0,0,1,4.28,1.07l-5.51,22A2.2,2.2,0,0,1,107.49,144.42Z"/><path d="M114.52,143.52a2.94,2.94,0,0,1-2.93,2.93h-8.21a2.93,2.93,0,0,1,0-5.86h8.21A2.94,2.94,0,0,1,114.52,143.52Z"/><path class="cls-1" d="M111.59,140.59h-8.21a2.94,2.94,0,0,0-2.93,2.93h14.07A2.94,2.94,0,0,0,111.59,140.59Z"/><path class="cls-2" d="M100.86,142.06h13.25a2.9,2.9,0,0,0-2.52-1.47h-8.21A2.92,2.92,0,0,0,100.86,142.06Z"/><path class="cls-5" d="M50.27,111.76a1.09,1.09,0,0,1-1-.61L23.84,59.49a1.1,1.1,0,0,1,2-1l25.45,51.65a1.11,1.11,0,0,1-.5,1.48A1.21,1.21,0,0,1,50.27,111.76Z"/><path class="cls-12" d="M114,107.17l-57.58-4.09a14.47,14.47,0,0,0,4,5.42L78,110.66s22.38.14,22.38.38,13.43,1.17,13.73,1,6.91,3.35,6.91,3.35l-.27,7.42-1.26,0a7,7,0,0,1-3.81,3.86l.6,6.29c5.47-1.29,9.76-5.42,10.49-10.81C127.74,115,122,108.25,114,107.17Z"/><path class="cls-5" d="M113.16,108.88l-55.78-4a12.33,12.33,0,0,0,9.18,6.18c7.71,1.05,19.69,2,30.74,2.86,9.59.67,12.83-.69,15.69-.69a7,7,0,0,1,2.69,13.45l.6,6.29a14.11,14.11,0,0,0,8.87-6.25,11.74,11.74,0,0,0,.76-2.85C126.88,116.72,121.14,110,113.16,108.88Z"/><path class="cls-11" d="M194.26,19.36a5.14,5.14,0,1,1-5.14-5.14A5.14,5.14,0,0,1,194.26,19.36Z"/><rect class="cls-7" x="163.95" width="22.26" height="7.09"/><path class="cls-6" d="M191.14,19.36a2,2,0,1,1-2-2A2,2,0,0,1,191.14,19.36Z"/><rect class="cls-8" x="164.63" width="1.1" height="7.1"/><rect class="cls-8" x="166.83" width="1.1" height="7.1"/><rect class="cls-8" x="169.03" width="1.1" height="7.1"/><rect class="cls-8" x="171.23" width="1.1" height="7.1"/><rect class="cls-8" x="173.43" width="1.1" height="7.1"/><rect class="cls-8" x="175.63" width="1.1" height="7.1"/><rect class="cls-8" x="177.84" width="1.1" height="7.1"/><rect class="cls-8" x="180.04" width="1.1" height="7.1"/><rect class="cls-8" x="182.24" width="1.1" height="7.1"/><rect class="cls-8" x="184.44" width="1.1" height="7.1"/><path class="cls-6" d="M208,43.62c-3.79.41-6.73,3.24-6.73,6.68S204.25,56.58,208,57Z"/><path class="cls-5" d="M206.29,56.6A8.38,8.38,0,0,0,208,57V43.62a9.07,9.07,0,0,0-1.75.38Z"/><rect class="cls-6" x="197.49" y="55.04" width="7.97" height="2.94" transform="translate(8.55 137.54) rotate(-38.45)"/></g></g></svg>