<svg xmlns="http://www.w3.org/2000/svg" viewBox="0 0 68.02 67.3"><defs><style>.cls-1{fill:#606060;}.cls-2{fill:#5fc8d3;}.cls-3{fill:#91e0ed;}.cls-4{fill:#2da1ad;}</style></defs><g id="Capa_2" data-name="Capa 2"><g id="Layer_1" data-name="Layer 1"><polygon points="39.59 53.96 28.09 35.34 32.02 32.91 40.88 47.26 60.32 32.91 63.07 36.63 39.59 53.96"/><path class="cls-1" d="M.58,28.62s2.31,4.62,14.16,7.22,21.1,3.66,27.85.58,7.75-6.32,12.33-5c3.37,1,2,6.3,5.59,7.52,2.79,1,3.47-.2,3.47-.2l1.73-8.67-9-6-20.24-.77s-12.52,3.08-15,3.08S.58,28.62.58,28.62Z"/><path class="cls-2" d="M36.88,0C16.58,0,0,16.76,0,30.06a1.34,1.34,0,0,0,0,.2c6.79,1.92,21.47,5.53,35.15,5.39,12.82-.87,10.4-8.29,19.57-8.29,4.79,0,7.79,7.33,6.22,13.92C67.84,38.68,68,32.12,68,27.36,68,14.06,58.58,0,36.88,0Z"/><path class="cls-3" d="M48.37,15.42c-19.56,0-19.16,13.54-38.3,17.33a118.28,118.28,0,0,0,25.09,2.9c12.82-.87,10.4-8.29,19.57-8.29,4.79,0,7.79,7.33,6.22,13.92C67.84,38.68,68,32.12,68,27.36c0-.71,0-1.42-.09-2.14A23.38,23.38,0,0,0,48.37,15.42Z"/><path class="cls-4" d="M36.88,0C16.58,0,0,16.76,0,30.06a1.34,1.34,0,0,0,0,.2c1.19.33,2.64.72,4.28,1.14C7,20.1,18.26,1.88,39.7,2.7A57.5,57.5,0,0,1,57.51,6C52.55,2.34,45.74,0,36.88,0Z"/><path d="M10.85,28.15c-1.33.67-1.71.23-.84-1L20.13,13c.86-1.21,1.78-1,2,.46l1,5.55a3.87,3.87,0,0,1-1.94,3.88Z"/><path d="M26.92,18.31c-1,1.06-1.83.72-1.75-.77l.25-4.87a4.11,4.11,0,0,1,2.73-3.46l8.14-2.39C37.72,6.4,38,6.93,37,8Z"/><path d="M37.62,14.52c-1.34.64-1.76.15-.93-1.08L40.45,7.8a4.92,4.92,0,0,1,4.18-2l6.59.66c1.48.15,1.59.79.25,1.43Z"/><path d="M50.2,12.85c-1.45-.33-1.43-.8,0-1l6.55-1.06a2.72,2.72,0,0,1,3.15,2c.28,1.33-.69,2.15-2.13,1.83Z"/><rect x="29.31" y="56.29" width="16.79" height="4.62" transform="translate(-29.36 77.53) rotate(-73.01)"/><rect class="cls-1" x="36.98" y="55.72" width="1.4" height="5.45" transform="translate(-28.95 78.36) rotate(-73.84)"/><path class="cls-2" d="M40.27,58.13l-4.42-1.35a1.16,1.16,0,0,0-1.45.76L33.33,61a1.17,1.17,0,0,0,.76,1.45l4.43,1.35A1.16,1.16,0,0,0,40,63.08L41,59.58A1.17,1.17,0,0,0,40.27,58.13Zm-1.42,4.61-4.42-1.36,1.08-3.5,4.42,1.36Z"/></g></g></svg>