<svg xmlns="http://www.w3.org/2000/svg" viewBox="0 0 53 63.64"><defs><style>.cls-1{fill:#ffb531;}.cls-2{fill:#f7852f;}.cls-3{fill:#e22b07;}</style></defs><g id="Capa_2" data-name="Capa 2"><g id="Layer_1" data-name="Layer 1"><path class="cls-1" d="M5.74,0C3.77,5.31-5,34.5,3.93,62.5c5.18,1.92,13.93,1.35,18.13-1.19,1.1-5.91,3.71-21.66,3.44-25.86h2c-.26,4.2,2.35,19.95,3.44,25.86,4.21,2.54,13,3.11,18.13,1.19C58,34.5,49.23,5.31,47.25,0Z"/><path class="cls-2" d="M47.25,0h-6l.81,2.44C49.45,24.93,38.49,55,35.31,63c4.41,1,10,.94,13.75-.45C58,34.5,49.23,5.31,47.25,0Z"/><path class="cls-2" d="M11.76,0h-6C3.77,5.31-5,34.5,3.93,62.5,7.68,63.89,13.28,64,17.69,63,14.51,55,3.55,24.92,11,2.44,11.23,1.6,11.49.79,11.76,0Z"/><path class="cls-3" d="M30.19,57.1c.28,1.66.54,3.1.74,4.21,4.21,2.54,13,3.11,18.13,1.19q.84-2.62,1.47-5.25C45.71,58.18,37.61,59.12,30.19,57.1Z"/><path class="cls-3" d="M22.81,57.11c-7.42,2-15.52,1.07-20.34.14q.63,2.63,1.46,5.25c5.18,1.92,13.93,1.35,18.13-1.19C22.27,60.2,22.53,58.76,22.81,57.11Z"/><path class="cls-3" d="M47.25,0H5.74C5.47.73,5.07,1.92,4.6,3.49H48.39C47.93,1.92,47.53.73,47.25,0Z"/></g></g></svg>