<svg xmlns="http://www.w3.org/2000/svg" viewBox="0 0 54.17 110.59"><defs><style>.cls-1{fill:#444;}.cls-2{fill:#2da1ad;}.cls-3{fill:#5fc8d3;}.cls-4{fill:#f7852f;}.cls-5{fill:#f76411;}.cls-6{fill:#878787;}</style></defs><g id="Capa_2" data-name="Capa 2"><g id="Layer_1" data-name="Layer 1"><rect x="1.43" width="13.89" height="31.99"/><rect class="cls-1" x="3.74" width="8.91" height="31.99"/><rect x="38.79" width="13.89" height="31.99"/><rect class="cls-1" x="41.28" width="8.91" height="31.99"/><path class="cls-1" d="M37,11.35a13.6,13.6,0,0,0-9.95-4.5,13.58,13.58,0,0,0-9.95,4.5Z"/><rect x="17.14" y="11.35" width="4.61" height="9.05"/><rect x="32.42" y="11.35" width="4.61" height="9.05"/><path class="cls-2" d="M11.21,110.59H43a11.24,11.24,0,0,0,11.2-11.21v-63A19.66,19.66,0,0,0,34.56,16.72h-15A19.67,19.67,0,0,0,0,36.33V99.38A11.24,11.24,0,0,0,11.21,110.59Z"/><path class="cls-3" d="M11.21,106.85a7.48,7.48,0,0,1-7.47-7.47V40.07A15.89,15.89,0,0,1,19.61,24.19h15A15.9,15.9,0,0,1,50.44,40.07V99.38A7.48,7.48,0,0,1,43,106.85Z"/><path class="cls-4" d="M3.74,40.81v27.7C7.45,63.13,14.4,63,14.4,54S7.45,45.49,3.74,40.81Z"/><path class="cls-4" d="M50.44,68.51V40.81C46.72,45.49,39.77,45.08,39.77,54S46.72,63.13,50.44,68.51Z"/><path class="cls-1" d="M3.74,72.45V99.38a7.48,7.48,0,0,0,7.47,7.47H43a7.48,7.48,0,0,0,7.47-7.47V72.45Z"/><path class="cls-3" d="M10,79.47A1.58,1.58,0,1,1,8.41,77.9,1.57,1.57,0,0,1,10,79.47Z"/><path class="cls-3" d="M15.32,79.47a1.58,1.58,0,1,1-3.15,0,1.58,1.58,0,0,1,3.15,0Z"/><path class="cls-3" d="M20.66,79.47a1.58,1.58,0,1,1-1.58-1.57A1.58,1.58,0,0,1,20.66,79.47Z"/><path class="cls-3" d="M26,79.47a1.58,1.58,0,1,1-1.57-1.57A1.57,1.57,0,0,1,26,79.47Z"/><path class="cls-3" d="M31.33,79.47a1.58,1.58,0,1,1-1.57-1.57A1.57,1.57,0,0,1,31.33,79.47Z"/><path class="cls-3" d="M36.67,79.47a1.58,1.58,0,1,1-3.15,0,1.58,1.58,0,0,1,3.15,0Z"/><path class="cls-3" d="M42,79.47a1.58,1.58,0,1,1-1.58-1.57A1.58,1.58,0,0,1,42,79.47Z"/><path class="cls-3" d="M47.34,79.47a1.58,1.58,0,1,1-1.57-1.57A1.57,1.57,0,0,1,47.34,79.47Z"/><path class="cls-3" d="M12.65,84.14a1.58,1.58,0,1,1-3.15,0,1.58,1.58,0,0,1,3.15,0Z"/><path class="cls-3" d="M18,84.14a1.58,1.58,0,1,1-3.15,0,1.58,1.58,0,0,1,3.15,0Z"/><path class="cls-3" d="M23.33,84.14a1.58,1.58,0,1,1-1.58-1.57A1.58,1.58,0,0,1,23.33,84.14Z"/><path class="cls-3" d="M28.66,84.14a1.58,1.58,0,1,1-1.57-1.57A1.57,1.57,0,0,1,28.66,84.14Z"/><path class="cls-3" d="M34,84.14a1.58,1.58,0,1,1-3.15,0,1.58,1.58,0,0,1,3.15,0Z"/><path class="cls-3" d="M39.34,84.14a1.58,1.58,0,1,1-3.15,0,1.58,1.58,0,0,1,3.15,0Z"/><path class="cls-3" d="M44.67,84.14a1.58,1.58,0,1,1-1.57-1.57A1.57,1.57,0,0,1,44.67,84.14Z"/><path class="cls-3" d="M10,88.81a1.58,1.58,0,1,1-1.57-1.57A1.57,1.57,0,0,1,10,88.81Z"/><path class="cls-3" d="M15.32,88.81a1.58,1.58,0,1,1-3.15,0,1.58,1.58,0,0,1,3.15,0Z"/><path class="cls-3" d="M20.66,88.81a1.58,1.58,0,1,1-1.58-1.57A1.58,1.58,0,0,1,20.66,88.81Z"/><path class="cls-3" d="M26,88.81a1.58,1.58,0,1,1-1.57-1.57A1.57,1.57,0,0,1,26,88.81Z"/><path class="cls-3" d="M31.33,88.81a1.58,1.58,0,1,1-1.57-1.57A1.57,1.57,0,0,1,31.33,88.81Z"/><path class="cls-3" d="M36.67,88.81a1.58,1.58,0,1,1-3.15,0,1.58,1.58,0,0,1,3.15,0Z"/><path class="cls-3" d="M42,88.81a1.58,1.58,0,1,1-1.58-1.57A1.58,1.58,0,0,1,42,88.81Z"/><path class="cls-3" d="M47.34,88.81a1.58,1.58,0,1,1-1.57-1.57A1.57,1.57,0,0,1,47.34,88.81Z"/><path class="cls-3" d="M12.65,93.48a1.58,1.58,0,1,1-3.15,0,1.58,1.58,0,0,1,3.15,0Z"/><path class="cls-3" d="M18,93.48a1.58,1.58,0,1,1-3.15,0,1.58,1.58,0,0,1,3.15,0Z"/><path class="cls-3" d="M23.33,93.48a1.58,1.58,0,1,1-1.58-1.57A1.58,1.58,0,0,1,23.33,93.48Z"/><path class="cls-3" d="M28.66,93.48a1.58,1.58,0,1,1-1.57-1.57A1.57,1.57,0,0,1,28.66,93.48Z"/><path class="cls-3" d="M34,93.48a1.58,1.58,0,1,1-3.15,0,1.58,1.58,0,0,1,3.15,0Z"/><path class="cls-3" d="M39.34,93.48a1.58,1.58,0,1,1-3.15,0,1.58,1.58,0,0,1,3.15,0Z"/><path class="cls-3" d="M44.67,93.48a1.58,1.58,0,1,1-1.57-1.57A1.57,1.57,0,0,1,44.67,93.48Z"/><path class="cls-3" d="M10,98.15a1.58,1.58,0,1,1-1.57-1.57A1.57,1.57,0,0,1,10,98.15Z"/><path class="cls-3" d="M15.32,98.15a1.58,1.58,0,1,1-3.15,0,1.58,1.58,0,0,1,3.15,0Z"/><path class="cls-3" d="M20.66,98.15a1.58,1.58,0,1,1-1.58-1.57A1.58,1.58,0,0,1,20.66,98.15Z"/><path class="cls-3" d="M26,98.15a1.58,1.58,0,1,1-1.57-1.57A1.57,1.57,0,0,1,26,98.15Z"/><path class="cls-3" d="M31.33,98.15a1.58,1.58,0,1,1-1.57-1.57A1.57,1.57,0,0,1,31.33,98.15Z"/><path class="cls-3" d="M36.67,98.15a1.58,1.58,0,1,1-3.15,0,1.58,1.58,0,0,1,3.15,0Z"/><path class="cls-3" d="M42,98.15a1.58,1.58,0,1,1-1.58-1.57A1.58,1.58,0,0,1,42,98.15Z"/><path class="cls-3" d="M47.34,98.15a1.58,1.58,0,1,1-1.57-1.57A1.57,1.57,0,0,1,47.34,98.15Z"/><path d="M4.11,101.71a7.49,7.49,0,0,0,7.1,5.14H43a7.49,7.49,0,0,0,7.09-5.14Z"/><rect x="3.74" y="72.45" width="46.7" height="3.7"/><path class="cls-1" d="M47.1,37.29a2.72,2.72,0,0,1-2.8,2.62H9.87a2.63,2.63,0,1,1,0-5.25H44.3A2.72,2.72,0,0,1,47.1,37.29Z"/><rect x="9.07" y="36.41" width="36.04" height="1.75"/><path class="cls-5" d="M32.42,48.33A5.34,5.34,0,1,1,27.09,43,5.34,5.34,0,0,1,32.42,48.33Z"/><path class="cls-4" d="M31,48.33a3.95,3.95,0,1,1-3.94-3.94A3.95,3.95,0,0,1,31,48.33Z"/><rect class="cls-4" x="10.54" y="35.81" width="0.93" height="3.11"/><rect class="cls-5" x="9.81" y="38.51" width="2.36" height="9.83"/><rect class="cls-1" x="1.43" width="13.89" height="2.45"/><rect class="cls-6" x="3.74" width="8.91" height="2.45"/><rect class="cls-1" x="38.79" width="13.89" height="2.45"/><rect class="cls-6" x="41.28" width="8.91" height="2.45"/></g></g></svg>