<svg xmlns="http://www.w3.org/2000/svg" viewBox="0 0 29.52 74.22"><defs><style>.cls-1{fill:#606060;}.cls-2{fill:#9e9e9e;}.cls-3{fill:#ffb531;}.cls-4{fill:#ffcb78;}.cls-5{fill:#5fc8d3;}.cls-6{fill:#91e0ed;}.cls-7{fill:#2da1ad;}</style></defs><g id="Capa_2" data-name="Capa 2"><g id="Layer_1" data-name="Layer 1"><path class="cls-1" d="M26.89,9.64H23.41v1.61h3.48c.61,0,1,.34,1,.56s-.41.56-1,.56H23.41V14h3.48a2.43,2.43,0,0,0,2.63-2.17A2.43,2.43,0,0,0,26.89,9.64Z"/><path class="cls-2" d="M16.3,5.37V2.15A2.16,2.16,0,0,0,14.15,0h-.67a2.15,2.15,0,0,0-2.14,2.15V5.37Z"/><path d="M14.15,0h-.67a2.14,2.14,0,0,0-2.09,1.68,12.84,12.84,0,0,0,2.43.23,12.84,12.84,0,0,0,2.43-.23A2.16,2.16,0,0,0,14.15,0Z"/><path class="cls-3" d="M21.06,9.56V7.48a3.76,3.76,0,0,0-3.75-3.75h-7A3.76,3.76,0,0,0,6.58,7.48V9.56Z"/><path class="cls-4" d="M6.91,5.93H20.72a3.76,3.76,0,0,0-3.41-2.2h-7A3.78,3.78,0,0,0,6.91,5.93Z"/><path class="cls-5" d="M24.22,13.58H3.42a4.66,4.66,0,0,1,1.77,3.49,4.66,4.66,0,0,1-1.77,3.49h20.8a4.62,4.62,0,0,1-1.77-3.49A4.62,4.62,0,0,1,24.22,13.58Z"/><rect class="cls-5" y="19.49" width="27.64" height="54.74" rx="5.37"/><path class="cls-6" d="M0,24.67H27.63a5.38,5.38,0,0,0-5.36-5.18H5.37A5.38,5.38,0,0,0,0,24.67Z"/><rect class="cls-7" y="27.8" width="27.64" height="6.71"/><path class="cls-7" d="M.11,69.93a5.38,5.38,0,0,0,5.26,4.29h16.9a5.39,5.39,0,0,0,5.26-4.29Z"/><rect class="cls-3" x="3.06" y="37.19" width="4.42" height="30.32"/><path d="M25.79,14.12V11.44A2.7,2.7,0,0,0,23.1,8.75H4.53a2.7,2.7,0,0,0-2.68,2.69v2.68Z"/><rect class="cls-3" x="1.85" y="11.44" width="23.93" height="0.8"/></g></g></svg>