<svg xmlns="http://www.w3.org/2000/svg" viewBox="0 0 46.59 54.88"><defs><style>.cls-1{fill:#f76411;}.cls-2{fill:#f7852f;}.cls-3{fill:#ffbc8a;}</style></defs><g id="Capa_2" data-name="Capa 2"><g id="Layer_1" data-name="Layer 1"><rect class="cls-1" x="11.42" y="20.32" width="8.42" height="15.51" transform="translate(-15.28 19.27) rotate(-45)"/><rect class="cls-1" x="17.52" width="6.79" height="11.14"/><path d="M21.8,2.44a.88.88,0,1,1-.88-.88A.88.88,0,0,1,21.8,2.44Z"/><path d="M21.8,5.57a.88.88,0,0,1-1.76,0,.88.88,0,1,1,1.76,0Z"/><path d="M21.8,8.69a.88.88,0,1,1-.88-.88A.88.88,0,0,1,21.8,8.69Z"/><rect class="cls-1" x="24.95" width="6.79" height="11.14"/><path d="M29.22,2.44a.88.88,0,1,1-.88-.88A.87.87,0,0,1,29.22,2.44Z"/><path d="M29.22,5.57a.88.88,0,1,1-.88-.88A.88.88,0,0,1,29.22,5.57Z"/><path d="M29.22,8.69a.88.88,0,1,1-.88-.88A.87.87,0,0,1,29.22,8.69Z"/><rect class="cls-1" x="32.37" width="6.79" height="11.14"/><path d="M36.65,2.44a.88.88,0,1,1-.88-.88A.88.88,0,0,1,36.65,2.44Z"/><path d="M36.65,5.57a.88.88,0,1,1-1.76,0,.88.88,0,0,1,1.76,0Z"/><circle cx="35.77" cy="8.69" r="0.88"/><rect class="cls-1" x="39.79" width="6.79" height="11.14"/><path d="M44.07,2.44a.88.88,0,0,1-1.76,0,.88.88,0,0,1,1.76,0Z"/><path d="M44.07,5.57a.88.88,0,1,1-.88-.88A.88.88,0,0,1,44.07,5.57Z"/><path d="M44.07,8.69a.88.88,0,0,1-1.76,0,.88.88,0,0,1,1.76,0Z"/><rect class="cls-2" x="17.52" y="10.97" width="29.06" height="25.56"/><polygon class="cls-3" points="21.03 31.78 19.71 31.78 19.89 30.51 20.19 30.52 20.48 30.56 20.39 31.19 21.03 31.19 21.03 31.78"/><path class="cls-3" d="M20.61,29.8,20,29.68a17.79,17.79,0,0,1,.5-1.94l.56.18A14.37,14.37,0,0,0,20.61,29.8Zm22.78,0a19.15,19.15,0,0,0-.48-1.88l.55-.18a15.92,15.92,0,0,1,.5,2Zm-22-2.6-.55-.2a15.28,15.28,0,0,1,.81-1.84l.52.27A16.63,16.63,0,0,0,21.34,27.18Zm21.31,0a15.57,15.57,0,0,0-.78-1.77l.52-.27A16.82,16.82,0,0,1,43.2,27ZM22.5,24.73l-.51-.3a16.22,16.22,0,0,1,1.14-1.66l.46.36A13.65,13.65,0,0,0,22.5,24.73Zm19,0a15.08,15.08,0,0,0-1.1-1.6l.46-.36A14,14,0,0,1,42,24.42ZM24.08,22.54l-.44-.39a13.86,13.86,0,0,1,1.46-1.41l.37.46A12.51,12.51,0,0,0,24.08,22.54Zm15.83,0a14.62,14.62,0,0,0-1.39-1.34l.37-.45a12.74,12.74,0,0,1,1.45,1.4Zm-13.83-1.8-.34-.47a11.34,11.34,0,0,1,1.73-1l.26.53A12.57,12.57,0,0,0,26.08,20.72Zm11.83,0a13.26,13.26,0,0,0-1.65-1l.25-.53a11.94,11.94,0,0,1,1.74,1Zm-9.48-1.28-.21-.54a10.54,10.54,0,0,1,2-.56l.11.58A10,10,0,0,0,28.43,19.43Zm7.12,0a9.36,9.36,0,0,0-1.84-.52l.1-.58a10.29,10.29,0,0,1,1.95.55ZM31,18.8,31,18.22a9.84,9.84,0,0,1,2,0L33,18.8A10.26,10.26,0,0,0,31,18.8Z"/><polygon class="cls-3" points="44.29 31.78 42.98 31.78 42.98 31.19 43.61 31.19 43.52 30.56 44.1 30.48 44.29 31.78"/><path class="cls-3" d="M42.22,31.78H40.33v-.59h1.89Zm-2.65,0H37.68v-.59h1.89Zm-2.65,0H35v-.59h1.89Zm-2.65,0H32.38v-.59h1.89Zm-2.65,0H29.73v-.59h1.89Zm-2.65,0H27.08v-.59H29Zm-2.65,0H24.43v-.59h1.89Zm-2.64,0h-1.9v-.59h1.9Z"/><path d="M43.05,30.71c-.94-6.52-5.53-11.47-11-11.47s-10.11,5-11,11.47Z"/><path d="M20.92,17.39a1.66,1.66,0,1,1,1.66-1.66A1.66,1.66,0,0,1,20.92,17.39Z"/><path d="M28.34,17.39A1.66,1.66,0,1,1,30,15.73,1.67,1.67,0,0,1,28.34,17.39Z"/><path d="M35.77,17.39a1.66,1.66,0,1,1,1.66-1.66A1.66,1.66,0,0,1,35.77,17.39Z"/><path d="M43.19,17.39a1.66,1.66,0,1,1,1.66-1.66A1.67,1.67,0,0,1,43.19,17.39Z"/><path class="cls-1" d="M33.78,34.13a1.73,1.73,0,1,1-1.73-1.73A1.72,1.72,0,0,1,33.78,34.13Z"/><rect x="29.08" y="30.51" width="0.48" height="6.02"/><path d="M33.2,34.13A1.14,1.14,0,1,1,32.05,33,1.15,1.15,0,0,1,33.2,34.13Z"/><rect class="cls-1" x="23.21" y="42.21" width="15.5" height="8.42" transform="translate(-23.75 35.49) rotate(-45)"/><polygon class="cls-1" points="22.27 29.48 29.06 29.48 29.06 18.56 22.27 18.34 22.27 29.48"/><path d="M24.79,20.78a.88.88,0,0,0,1.76,0,.88.88,0,0,0-1.76,0Z"/><path d="M24.79,23.91a.88.88,0,1,0,.88-.88A.88.88,0,0,0,24.79,23.91Z"/><path d="M24.79,27a.88.88,0,1,0,.88-.88A.87.87,0,0,0,24.79,27Z"/><polygon class="cls-1" points="14.85 29.48 21.64 29.69 21.64 18.56 14.85 18.34 14.85 29.48"/><path d="M17.37,20.78a.88.88,0,1,0,.88-.88A.87.87,0,0,0,17.37,20.78Z"/><path d="M17.37,23.91a.88.88,0,1,0,.88-.88A.88.88,0,0,0,17.37,23.91Z"/><path d="M17.37,27a.88.88,0,1,0,.88-.88A.87.87,0,0,0,17.37,27Z"/><polygon class="cls-1" points="7.42 29.48 14.22 29.69 14.22 18.56 7.42 18.34 7.42 29.48"/><path d="M9.94,20.78a.88.88,0,1,0,.88-.88A.88.88,0,0,0,9.94,20.78Z"/><path d="M9.94,23.91a.88.88,0,1,0,1.76,0,.88.88,0,1,0-1.76,0Z"/><path d="M9.94,27a.88.88,0,1,0,.88-.88A.88.88,0,0,0,9.94,27Z"/><polygon class="cls-1" points="0 29.48 6.79 29.69 6.79 18.56 0 18.34 0 29.48"/><path d="M2.52,20.78a.88.88,0,0,0,1.76,0,.88.88,0,0,0-1.76,0Z"/><path d="M2.52,23.91A.88.88,0,1,0,3.4,23,.88.88,0,0,0,2.52,23.91Z"/><path d="M2.52,27a.88.88,0,1,0,.88-.88A.87.87,0,0,0,2.52,27Z"/><rect class="cls-2" y="29.31" width="29.06" height="25.56"/><polygon class="cls-3" points="25.56 50.12 26.88 50.12 26.69 48.85 26.4 48.86 26.11 48.9 26.2 49.53 25.56 49.53 25.56 50.12"/><path class="cls-3" d="M25.5,46.26l.56-.18a15.44,15.44,0,0,1,.49,2l-.57.11A19.15,19.15,0,0,0,25.5,46.26ZM2.63,48a15.89,15.89,0,0,1,.49-1.95l.56.18a19.15,19.15,0,0,0-.48,1.88Zm21.84-4.26.52-.27a18,18,0,0,1,.81,1.84l-.55.2A16.63,16.63,0,0,0,24.47,43.75ZM3.38,45.3a16.88,16.88,0,0,1,.82-1.84l.52.27a15.63,15.63,0,0,0-.79,1.77ZM23,41.47l.46-.36a16.22,16.22,0,0,1,1.14,1.66l-.51.3A15,15,0,0,0,23,41.47ZM4.59,42.76a12.93,12.93,0,0,1,1.14-1.67l.45.37a14.87,14.87,0,0,0-1.09,1.59Zm16.53-3.22.37-.45a12.74,12.74,0,0,1,1.45,1.4l-.43.39A12.51,12.51,0,0,0,21.12,39.54Zm-14.87.94A12.84,12.84,0,0,1,7.7,39.07l.37.46a12.44,12.44,0,0,0-1.39,1.33Zm12.61-2.4.25-.53a11.43,11.43,0,0,1,1.74,1l-.34.48A11.63,11.63,0,0,0,18.86,38.08Zm-10.52.5a10.61,10.61,0,0,1,1.74-1l.25.52a11.63,11.63,0,0,0-1.65,1Zm8-1.33.11-.57a9.79,9.79,0,0,1,1.95.55l-.22.55A9.39,9.39,0,0,0,16.31,37.25Zm-5.49,0a11.44,11.44,0,0,1,2-.55l.1.58a10.1,10.1,0,0,0-1.84.52Zm2.82-.08-.06-.58a9.84,9.84,0,0,1,2,0l-.06.58A10.16,10.16,0,0,0,13.64,37.14Z"/><polygon class="cls-3" points="2.3 50.12 3.61 50.12 3.61 49.53 2.98 49.53 3.07 48.9 2.49 48.82 2.3 50.12"/><path class="cls-3" d="M4.37,49.54H6.26v.58H4.37Zm2.65,0H8.91v.58H7Zm2.65,0h1.89v.58H9.67Zm2.65,0h1.89v.58H12.32Zm2.65,0h1.89v.58H15Zm2.64,0h1.9v.58h-1.9Zm2.65,0h1.9v.58h-1.9Zm2.65,0h1.9v.58h-1.9Z"/><path d="M3.54,49.05c.94-6.52,5.53-11.46,11.05-11.46S24.7,42.53,25.64,49.05Z"/><path d="M25.67,35.73A1.66,1.66,0,1,0,24,34.07,1.67,1.67,0,0,0,25.67,35.73Z"/><path d="M18.25,35.73a1.66,1.66,0,1,0-1.67-1.66A1.67,1.67,0,0,0,18.25,35.73Z"/><path d="M10.82,35.73a1.66,1.66,0,1,0-1.66-1.66A1.66,1.66,0,0,0,10.82,35.73Z"/><path d="M3.4,35.73a1.66,1.66,0,1,0-1.66-1.66A1.67,1.67,0,0,0,3.4,35.73Z"/><path class="cls-1" d="M12.81,52.47a1.73,1.73,0,1,0,1.72-1.73A1.72,1.72,0,0,0,12.81,52.47Z"/><rect x="17.03" y="48.85" width="0.48" height="6.03"/><path d="M13.39,52.47a1.14,1.14,0,1,0,1.14-1.14A1.14,1.14,0,0,0,13.39,52.47Z"/></g></g></svg>