<svg xmlns="http://www.w3.org/2000/svg" viewBox="0 0 67.27 107.55"><defs><style>.cls-1{fill:#606060;}.cls-2{fill:#9e9e9e;}.cls-3{fill:#f7852f;}.cls-4{fill:#f76411;}</style></defs><g id="Capa_2" data-name="Capa 2"><g id="Layer_1" data-name="Layer 1"><rect class="cls-1" x="59.34" y="103.75" width="1.01" height="4.25" transform="translate(-60.82 90.68) rotate(-53.35)"/><rect class="cls-1" x="57.04" y="101.42" width="2.27" height="2.34" transform="translate(-58.86 88.05) rotate(-53.36)"/><rect x="56.27" y="102.24" width="1.89" height="3.29" transform="translate(-60.28 87.77) rotate(-53.35)"/><path class="cls-2" d="M61.49,99.86l-1.57-1.27c5.58-6.89,7-16.62,3.32-23.65-2.67-5.21-7.51-7.87-13.59-7.5C34,68.39,30.49,95.09,30.46,95.36l-2-.25c.15-1.17,3.76-28.63,21.08-29.68C56.36,65,62,68.14,65,74,69,81.74,67.56,92.37,61.49,99.86Z"/><polygon class="cls-1" points="25.09 95.92 6.79 95.92 4.84 100.21 25.09 104.51 25.09 95.92"/><polygon points="25.09 102.37 5.29 99.23 4.84 100.21 25.09 104.51 25.09 102.37"/><polygon class="cls-1" points="26.06 95.92 44.36 95.92 46.31 100.21 26.06 104.51 26.06 95.92"/><polygon points="26.06 102.37 45.86 99.23 46.31 100.21 26.06 104.51 26.06 102.37"/><path class="cls-2" d="M12.21,4.79A36.7,36.7,0,0,1,1.54,3.51,3,3,0,0,0,0,6.15v2a3,3,0,0,0,3,3H23.36V3.34C21.17,4.21,17,4.79,12.21,4.79Z"/><path class="cls-1" d="M4.45,4.21l-.87-.16V6.27c.29.1.58.21.87.3Z"/><path class="cls-1" d="M6.2,4.46l-.87-.12v2.5l.87.23Z"/><path class="cls-1" d="M7.94,4.63l-.87-.08V7.27l.87.16Z"/><path class="cls-1" d="M9.68,4.74l-.87,0V7.55l.87.1Z"/><path class="cls-1" d="M11.42,4.79l-.87,0v3l.87,0Z"/><path class="cls-1" d="M12.29,4.79v3c.29,0,.58,0,.87,0v-3Z"/><path class="cls-1" d="M14,4.77V7.7l.87-.08V4.73Z"/><path class="cls-1" d="M15.77,4.68V7.51l.87-.14V4.62Z"/><path class="cls-1" d="M17.51,4.54V7.2L18.38,7V4.44Z"/><path class="cls-1" d="M19.25,4.32V6.75l.87-.28V4.18Z"/><path class="cls-1" d="M.08,8.84A3,3,0,0,0,3,11.2H23.36V8.84Z"/><path class="cls-2" d="M38.94,4.79A36.7,36.7,0,0,0,49.61,3.51a3,3,0,0,1,1.54,2.64v2a3,3,0,0,1-3,3H27.79V3.34C30,4.21,34.15,4.79,38.94,4.79Z"/><path class="cls-1" d="M46.7,4.21l.87-.16V6.27c-.29.1-.58.21-.87.3Z"/><path class="cls-1" d="M45,4.46l.87-.12v2.5L45,7.07Z"/><path class="cls-1" d="M43.21,4.63l.87-.08V7.27l-.87.16Z"/><path class="cls-1" d="M41.47,4.74l.87,0V7.55l-.87.1Z"/><path class="cls-1" d="M39.73,4.79l.87,0v3l-.87,0Z"/><path class="cls-1" d="M38.86,4.79v3c-.29,0-.58,0-.87,0v-3Z"/><path class="cls-1" d="M37.12,4.77V7.7l-.87-.08V4.73Z"/><path class="cls-1" d="M35.38,4.68V7.51l-.87-.14V4.62Z"/><path class="cls-1" d="M33.64,4.54V7.2L32.77,7V4.44Z"/><path class="cls-1" d="M31.9,4.32V6.75L31,6.47V4.18Z"/><path class="cls-1" d="M51.07,8.84a3,3,0,0,1-3,2.36H27.79V8.84Z"/><rect class="cls-1" x="21.91" width="7.33" height="17.68" rx="3.03"/><rect class="cls-3" x="21.91" y="15.66" width="7.33" height="80.25"/><rect class="cls-4" x="25.58" y="15.66" width="3.66" height="80.25"/><rect x="20.14" y="14.15" width="10.86" height="3.03" rx="1.01"/><path class="cls-2" d="M22,2.15h7.07A3.06,3.06,0,0,0,26.21,0H24.94A3.06,3.06,0,0,0,22,2.15Z"/><rect x="20.14" y="94.4" width="10.86" height="3.03" rx="1.01"/><path class="cls-2" d="M27.29,97.68a1.72,1.72,0,1,0-3.43,0v6.92a1.72,1.72,0,1,0,3.43,0Z"/><path class="cls-2" d="M61.59,102.31a1.65,1.65,0,0,1-2.3.34l-1.49-1.1a1.65,1.65,0,0,1-.33-2.3l.55-.74a1.64,1.64,0,0,1,2.3-.34l1.48,1.1a1.65,1.65,0,0,1,.34,2.3Z"/></g></g></svg>