<svg xmlns="http://www.w3.org/2000/svg" viewBox="0 0 77.65 79.13"><defs><style>.cls-1{fill:#ff4c22;}.cls-2{fill:#ffb531;}.cls-3{fill:#e22b07;}</style></defs><g id="Capa_2" data-name="Capa 2"><g id="Layer_1" data-name="Layer 1"><path class="cls-1" d="M65,37.91l12.69-5.85-10-21.61s-1.52-6.08-11-6.08H21a13,13,0,0,0-11,6.08L0,32.06l12.68,5.85,3.43-7.42c.58,8.35.91,18.77.91,25.81a186.72,186.72,0,0,1-1.3,22.83h46.2A186.88,186.88,0,0,1,60.63,56.3c0-7,.33-17.45.91-25.81Z"/><path class="cls-2" d="M48.44,7.58l-.61,1.53c4.05,1.21,10.78,5.33,12.78,11.46,1.15,3.51,1.2,7.69,1.34,10.8L63,33.71c.25-5.61.95-12.41-2.29-18.34S50.16,7.88,48.44,7.58Z"/><path class="cls-2" d="M17,20.57c2-6.13,8.73-10.25,12.78-11.46l-.61-1.53c-1.73.3-9.07,1.89-12.3,7.79S14.36,28.1,14.62,33.71l1.08-2.33C15.84,28.26,15.89,24.08,17,20.57Z"/><path class="cls-3" d="M49.47,5.66c0,3.13-4.77,5.66-10.65,5.66S28.18,8.79,28.18,5.66,33,0,38.82,0,49.47,2.53,49.47,5.66Z"/><path d="M49.47,7.69c0,3.12-10.65,9.2-10.65,9.2s-10.64-6.08-10.64-9.2S33,2,38.82,2,49.47,4.56,49.47,7.69Z"/><path class="cls-3" d="M38.82,11.32c-5.22,0-9.56-2-10.46-4.65a3.22,3.22,0,0,0-.18,1c0,3.12,10.64,9.2,10.64,9.2s10.65-6.08,10.65-9.2a3.22,3.22,0,0,0-.18-1C48.39,9.31,44.05,11.32,38.82,11.32Z"/><path class="cls-2" d="M60.63,56.3c0-5.83.22-14,.63-21.37-2.22.44-6.33,2.33-6.69,10.18-.41,8.53,1.25,23.17,3.81,34h3.54A186.88,186.88,0,0,1,60.63,56.3Z"/><path class="cls-2" d="M19.26,79.13c2.57-10.85,4.22-25.49,3.82-34-.37-7.85-4.47-9.73-6.7-10.18.41,7.38.64,15.54.64,21.37a186.72,186.72,0,0,1-1.3,22.83Z"/></g></g></svg>