<svg xmlns="http://www.w3.org/2000/svg" viewBox="0 0 85.24 44.89"><defs><style>.cls-1{fill:#444;}.cls-2{fill:#9e9e9e;}.cls-3{fill:#2da1ad;}.cls-4{fill:#5fc8d3;}.cls-5{fill:#91e0ed;}</style></defs><g id="Capa_2" data-name="Capa 2"><g id="Layer_1" data-name="Layer 1"><path class="cls-1" d="M44.12,0S31,11.71,22,15.2C13.37,18.54,5.51,18,3.51,18.92c-3.84,1.69-3,6.45-3,6.45S-2,33.69,54.34,31c4,.24,15,1.55,21.38-2.8,4.18-12.87-2.81-23-4.45-25.29S67.37.14,66.1,1.29s-1.38,6.59-7.27,6.88S46.5,0,46.5,0Z"/><path d="M30.89,31.5c6.39.06,14.11-.09,23.45-.54,1.57.1,4.2.35,7.19.37-1.87-1.2-3.79-2-5.4-1.7-5.18.9-24.68.9-24.68.9Z"/><path d="M46.5,0H44.12A130.59,130.59,0,0,1,28,12.13c2.89,2,8.91,4.55,16.55-.72,3-2.08,5.69-4,8-5.59A31.81,31.81,0,0,1,46.5,0Z"/><path class="cls-2" d="M71.31,2.92l0,0C69.63.57,67.37.14,66.1,1.29s-1.38,6.59-7.27,6.88S46.5,0,46.5,0h-2C46,3.33,51.1,12.33,61.68,11.71,68.12,11.34,70.7,7.3,71.31,2.92Z"/><path d="M75.72,28.16A25.65,25.65,0,0,0,76.53,25,67.61,67.61,0,0,0,44,18.94c-14.48.81-28.13,6.77-35.73,10.73,1.31.27,2.83.53,4.61.77a84.4,84.4,0,0,1,28.46-6,39.45,39.45,0,0,1,24.26,6.79C69.21,30.89,72.9,30.07,75.72,28.16Z"/><path class="cls-3" d="M36.39,32c-2-3.26-3.37-3.43-7.53-3.33-4.63.11-19.39-1.81-22-2.93s-2.09-3.07-2.71-4.85a3.71,3.71,0,0,0-1.64-1.9C-.42,20.86,0,24.74.07,25.37A1.86,1.86,0,0,0,.5,26.72C2,28.68,8.21,32,33.86,32Z"/><path class="cls-3" d="M76,28.54l.12-.09.05-.15A26.72,26.72,0,0,0,77,25a82.46,82.46,0,0,1-16.92,2.15c-5.55.09-6.27,3.07-6.33,4.29l.58,0,1.33.09c1.61.12,3.82.28,6.23.28C68.14,31.78,72.75,30.72,76,28.54Z"/><path class="cls-4" d="M41.84,19.64l-11-10.15a57.9,57.9,0,0,1-6.73,4l7.71,7.11A14.6,14.6,0,0,0,41.84,19.64Z"/><path class="cls-4" d="M12.63,17,19.21,23a14.55,14.55,0,0,0,10-1l-7.93-7.3A45.64,45.64,0,0,1,12.63,17Z"/><path class="cls-4" d="M39.56,3c-1.69,1.37-3.78,3-6,4.65l11,10.11a14.54,14.54,0,0,0,10-1Z"/><path class="cls-5" d="M39.56,3c-1.69,1.37-3.78,3-6,4.65l4.94,4.55c2.21-1.1,4.54-2.35,7-3.78Z"/><path class="cls-5" d="M30.84,9.49a57.9,57.9,0,0,1-6.73,4l3.5,3.23c2.37-.81,5-1.83,7.73-3.09Z"/><path class="cls-5" d="M21.3,14.74A45.64,45.64,0,0,1,12.63,17l2.78,2.56a51,51,0,0,0,9.11-1.82Z"/><path class="cls-1" d="M52.33,12.93S39.21,24.64,30.19,28.14C21.58,31.48,13.72,31,11.72,31.85c-3.84,1.7-3,6.45-3,6.45s-2.55,8.32,53.82,5.59c4,.24,15,1.55,21.38-2.79,4.18-12.88-2.81-23-4.45-25.3s-3.89-2.72-5.17-1.58S72.93,20.82,67,21.1s-12.33-8.17-12.33-8.17Z"/><path d="M39.1,44.43c6.39.07,14.11-.08,23.45-.54,1.57.1,4.2.35,7.19.37-1.87-1.2-3.79-2-5.4-1.7-5.18.91-24.68.91-24.68.91S39.43,43.85,39.1,44.43Z"/><path d="M54.71,12.93H52.33A131.28,131.28,0,0,1,36.2,25.07c2.89,2,8.91,4.54,16.56-.73,3-2.08,5.68-4,7.94-5.59A31.48,31.48,0,0,1,54.71,12.93Z"/><path class="cls-2" d="M79.52,15.85l0,0c-1.64-2.29-3.89-2.72-5.17-1.58S72.93,20.82,67,21.1s-12.33-8.17-12.33-8.17h-2c1.51,3.33,6.59,12.33,17.17,11.71C76.33,24.27,78.91,20.23,79.52,15.85Z"/><path d="M83.93,41.1A25.65,25.65,0,0,0,84.74,38a67.49,67.49,0,0,0-32.52-6.1c-14.48.81-28.13,6.77-35.73,10.72,1.31.28,2.83.54,4.61.77a84.64,84.64,0,0,1,28.46-6,39.5,39.5,0,0,1,24.27,6.79C77.42,43.82,81.11,43,83.93,41.1Z"/><path class="cls-3" d="M44.6,44.88c-2-3.26-3.37-3.43-7.53-3.33-4.62.11-19.39-1.8-22-2.93S13,35.55,12.38,33.77a3.65,3.65,0,0,0-1.64-1.89c-2.95,1.92-2.55,5.8-2.46,6.42a1.85,1.85,0,0,0,.43,1.35c1.45,2,7.71,5.24,33.36,5.24Z"/><path class="cls-3" d="M84.19,41.47l.13-.09,0-.14a27.42,27.42,0,0,0,.86-3.31,82.69,82.69,0,0,1-16.93,2.15c-5.55.09-6.27,3.07-6.33,4.29l.58,0,1.33.09c1.61.11,3.82.27,6.23.27C76.35,44.71,81,43.65,84.19,41.47Z"/><path class="cls-4" d="M50.05,32.57l-11-10.14a60.85,60.85,0,0,1-6.73,4L40,33.55A14.48,14.48,0,0,0,50.05,32.57Z"/><path class="cls-4" d="M20.84,29.9,27.42,36a14.61,14.61,0,0,0,10-1l-7.93-7.31A44.71,44.71,0,0,1,20.84,29.9Z"/><path class="cls-4" d="M47.77,15.89c-1.69,1.37-3.78,3-6,4.65l11,10.11a14.61,14.61,0,0,0,10-1Z"/><path class="cls-5" d="M47.77,15.89c-1.69,1.37-3.78,3-6,4.65l4.94,4.56q3.31-1.65,7-3.78Z"/><path class="cls-5" d="M39.05,22.43a60.85,60.85,0,0,1-6.73,4l3.5,3.22c2.37-.81,5-1.82,7.73-3.09Z"/><path class="cls-5" d="M29.51,27.67a44.71,44.71,0,0,1-8.67,2.23l2.78,2.56a51.13,51.13,0,0,0,9.12-1.82Z"/></g></g></svg>