<svg xmlns="http://www.w3.org/2000/svg" viewBox="0 0 263.13 151"><defs><style>.cls-1{fill:#bfbfbf;}.cls-2{fill:#9e9e9e;}.cls-3{fill:#444;}.cls-4{fill:#606060;}.cls-5{fill:#2b2b2b;}.cls-6{fill:#e22b07;}.cls-7{fill:#ff4c22;}</style></defs><g id="Capa_2" data-name="Capa 2"><g id="Layer_1" data-name="Layer 1"><rect class="cls-1" x="10.99" y="101.48" width="80.04" height="0.99"/><rect class="cls-1" x="10.99" y="97.51" width="80.04" height="0.99"/><rect class="cls-1" x="52.5" y="59.97" width="0.99" height="80.04"/><rect class="cls-1" x="48.53" y="59.97" width="0.99" height="80.04"/><rect class="cls-1" x="52.34" y="59.21" width="0.99" height="80.04" transform="translate(-33.95 27.77) rotate(-22.5)"/><rect class="cls-1" x="48.68" y="60.73" width="0.99" height="80.04" transform="translate(-34.81 26.49) rotate(-22.5)"/><rect class="cls-1" x="51.91" y="58.57" width="0.99" height="80.04" transform="translate(-54.36 65.93) rotate(-45)"/><rect class="cls-1" x="49.11" y="61.38" width="0.99" height="80.04" transform="translate(-57.17 64.77) rotate(-45)"/><rect class="cls-1" x="51.27" y="58.14" width="0.99" height="80.04" transform="translate(-58.73 108.42) rotate(-67.5)"/><rect class="cls-1" x="49.75" y="61.81" width="0.99" height="80.04" transform="translate(-63.06 109.28) rotate(-67.5)"/><rect class="cls-1" x="11.75" y="101.33" width="80.04" height="0.99" transform="translate(-35.03 27.56) rotate(-22.5)"/><rect class="cls-1" x="10.23" y="97.66" width="80.04" height="0.99" transform="translate(-33.74 26.7) rotate(-22.5)"/><rect class="cls-1" x="12.39" y="100.9" width="80.04" height="0.99" transform="translate(-56.35 66.76) rotate(-45)"/><rect class="cls-1" x="9.58" y="98.09" width="80.04" height="0.99" transform="translate(-55.18 63.95) rotate(-45)"/><rect class="cls-1" x="12.82" y="100.26" width="80.04" height="0.99" transform="translate(-60.46 111.01) rotate(-67.5)"/><rect class="cls-1" x="9.15" y="98.74" width="80.04" height="0.99" transform="translate(-61.32 106.69) rotate(-67.5)"/><path d="M51,49.72A50.27,50.27,0,1,0,101.28,100,50.28,50.28,0,0,0,51,49.72Zm0,89A38.69,38.69,0,1,1,89.69,100,38.69,38.69,0,0,1,51,138.68Z"/><path d="M51,56.5A43.49,43.49,0,1,0,94.5,100,43.5,43.5,0,0,0,51,56.5Zm0,82.18A38.69,38.69,0,1,1,89.69,100,38.69,38.69,0,0,1,51,138.68Z"/><path class="cls-1" d="M51,58.51A41.48,41.48,0,1,0,92.49,100,41.48,41.48,0,0,0,51,58.51Zm0,80.17A38.69,38.69,0,1,1,89.69,100,38.69,38.69,0,0,1,51,138.68Z"/><path class="cls-2" d="M51,60.08A39.91,39.91,0,1,0,90.92,100,39.91,39.91,0,0,0,51,60.08Zm0,78.6A38.69,38.69,0,1,1,89.69,100,38.69,38.69,0,0,1,51,138.68Z"/><path class="cls-3" d="M65.59,51.12c-.92-.27-1.84-.52-2.78-.74l-1.42,5.29c.94.22,1.87.46,2.78.74Z"/><path class="cls-3" d="M59.09,49.63c-.94-.15-1.89-.28-2.85-.38l-.72,5.44c1,.09,1.91.22,2.85.38Z"/><path class="cls-3" d="M49.57,49V54.5c.48,0,1,0,1.44,0l1.44,0V49L51,49C50.52,49,50.05,49,49.57,49Z"/><path class="cls-3" d="M43.64,55.07c.94-.16,1.89-.29,2.85-.38l-.71-5.44c-1,.1-1.91.23-2.85.38Z"/><path class="cls-3" d="M37.84,56.41c.91-.28,1.84-.52,2.78-.74L39.2,50.38c-.93.22-1.86.47-2.78.74Z"/><path class="cls-3" d="M32.26,58.5c.88-.39,1.76-.76,2.66-1.1l-2.09-5c-.9.34-1.78.71-2.66,1.1Z"/><path class="cls-3" d="M27,61.31c.81-.51,1.64-1,2.49-1.45l-2.74-4.73c-.84.45-1.67.94-2.48,1.44Z"/><path class="cls-3" d="M22.17,64.77c.74-.61,1.5-1.19,2.28-1.75l-3.32-4.33c-.78.56-1.54,1.14-2.29,1.75Z"/><path class="cls-3" d="M17.82,68.84c.66-.7,1.34-1.38,2-2L16,63c-.7.66-1.38,1.34-2,2Z"/><path class="cls-3" d="M9.71,70.11,14,73.44c.56-.78,1.14-1.55,1.74-2.29l-4.32-3.32C10.85,68.57,10.27,69.34,9.71,70.11Z"/><path class="cls-3" d="M10.88,78.48c.45-.85.93-1.67,1.44-2.48L7.59,73.26c-.51.82-1,1.64-1.45,2.49Z"/><path class="cls-3" d="M8.41,83.91c.34-.9.71-1.79,1.11-2.66l-5-2.09c-.4.87-.77,1.75-1.11,2.65Z"/><path class="cls-3" d="M6.68,89.6c.22-.93.47-1.86.74-2.77L2.14,85.41c-.28.91-.52,1.84-.75,2.78Z"/><path class="cls-3" d="M5.7,95.48c.1-1,.23-1.91.38-2.85L.65,91.91C.5,92.85.37,93.8.27,94.76Z"/><path class="cls-3" d="M5.48,100c0-.48,0-.95,0-1.43H0c0,.47,0,1,0,1.43s0,1,0,1.44H5.51C5.5,101,5.48,100.47,5.48,100Z"/><path class="cls-3" d="M.65,108.07l5.43-.71c-.15-.94-.28-1.89-.38-2.85l-5.43.71C.37,106.18.5,107.13.65,108.07Z"/><path class="cls-3" d="M2.14,114.58l5.28-1.42c-.28-.92-.52-1.84-.74-2.78L1.39,111.8C1.62,112.73,1.86,113.66,2.14,114.58Z"/><path class="cls-3" d="M4.47,120.83l5.05-2.09c-.4-.88-.77-1.76-1.11-2.66l-5.05,2.09C3.71,119.07,4.08,120,4.47,120.83Z"/><path class="cls-3" d="M7.59,126.72,12.32,124q-.77-1.21-1.44-2.49l-4.74,2.74C6.6,125.08,7.08,125.91,7.59,126.72Z"/><path class="cls-3" d="M11.45,132.15l4.33-3.32q-.9-1.11-1.74-2.28l-4.33,3.32Q10.55,131,11.45,132.15Z"/><path class="cls-3" d="M17.82,131.14,14,135c.66.7,1.34,1.38,2,2l3.85-3.85C19.15,132.52,18.48,131.84,17.82,131.14Z"/><path class="cls-3" d="M18.85,139.54c.74.61,1.5,1.19,2.28,1.75L24.45,137c-.78-.56-1.54-1.13-2.28-1.74Z"/><path class="cls-3" d="M24.28,143.41c.81.5,1.64,1,2.48,1.45l2.74-4.74c-.85-.45-1.67-.93-2.49-1.44Z"/><path class="cls-3" d="M30.17,146.53c.88.39,1.76.76,2.66,1.11l2.09-5c-.9-.34-1.78-.71-2.66-1.11Z"/><path class="cls-3" d="M36.42,148.86c.92.28,1.85.52,2.78.74l1.42-5.29c-.94-.21-1.87-.46-2.78-.73Z"/><path class="cls-3" d="M42.93,150.35c.94.15,1.89.28,2.85.38l.71-5.43c-1-.1-1.9-.23-2.85-.38Z"/><path class="cls-3" d="M52.45,151v-5.47l-1.44,0c-.49,0-1,0-1.44,0V151c.48,0,1,0,1.44,0S52,151,52.45,151Z"/><path class="cls-3" d="M58.37,144.92c-.94.15-1.89.28-2.85.38l.72,5.43c1-.1,1.9-.23,2.85-.38Z"/><path class="cls-3" d="M64.18,143.58c-.92.27-1.85.52-2.79.73l1.42,5.29c.94-.22,1.87-.46,2.78-.74Z"/><path class="cls-3" d="M69.75,141.48c-.87.4-1.76.77-2.65,1.11l2.09,5c.89-.35,1.78-.72,2.65-1.11Z"/><path class="cls-3" d="M75,138.68c-.81.51-1.64,1-2.48,1.44l2.73,4.74c.84-.46,1.67-1,2.48-1.45Z"/><path class="cls-3" d="M79.85,135.22c-.74.6-1.51,1.18-2.29,1.74l3.33,4.33c.77-.56,1.54-1.14,2.28-1.75Z"/><path class="cls-3" d="M84.19,131.14c-.65.7-1.33,1.38-2,2L86,137c.69-.65,1.37-1.33,2-2Z"/><path class="cls-3" d="M92.31,129.87,88,126.55c-.56.78-1.14,1.54-1.75,2.28l4.33,3.32C91.16,131.41,91.74,130.65,92.31,129.87Z"/><path class="cls-3" d="M91.14,121.5c-.46.85-.94,1.67-1.44,2.49l4.73,2.73c.5-.82,1-1.64,1.44-2.49Z"/><path class="cls-3" d="M93.6,116.08c-.34.9-.71,1.78-1.1,2.66l5,2.09c.39-.88.76-1.76,1.1-2.66Z"/><path class="cls-3" d="M95.33,110.38c-.22.94-.46,1.86-.74,2.78l5.29,1.41c.27-.91.52-1.84.74-2.77Z"/><path class="cls-3" d="M96.31,104.5c-.1,1-.22,1.92-.38,2.86l5.44.71c.15-.94.28-1.89.38-2.85Z"/><path class="cls-3" d="M96.54,100c0,.48,0,1,0,1.44H102c0-.48,0-1,0-1.44s0-1,0-1.43H96.5C96.51,99,96.54,99.51,96.54,100Z"/><path class="cls-3" d="M101.37,91.91l-5.44.72c.16.94.28,1.89.38,2.85l5.44-.72C101.65,93.8,101.52,92.86,101.37,91.91Z"/><path class="cls-3" d="M99.88,85.41l-5.29,1.42c.28.91.52,1.84.74,2.77l5.29-1.41C100.4,87.25,100.15,86.32,99.88,85.41Z"/><path class="cls-3" d="M97.55,79.16l-5,2.09c.39.87.76,1.76,1.1,2.66l5.05-2.1C98.31,80.91,97.94,80,97.55,79.16Z"/><path class="cls-3" d="M95.87,75.75c-.45-.85-.94-1.67-1.44-2.49L89.7,76c.5.81,1,1.63,1.44,2.48Z"/><path class="cls-3" d="M90.56,67.83l-4.33,3.32c.61.74,1.19,1.51,1.75,2.29l4.33-3.33C91.74,69.34,91.16,68.57,90.56,67.83Z"/><path class="cls-3" d="M84.19,68.84,88.05,65c-.66-.69-1.34-1.37-2-2l-3.86,3.86C82.86,67.46,83.54,68.14,84.19,68.84Z"/><path class="cls-3" d="M83.17,60.44c-.74-.6-1.51-1.18-2.28-1.75L77.56,63c.78.56,1.55,1.14,2.29,1.75Z"/><path class="cls-3" d="M77.74,56.57c-.82-.5-1.64-1-2.49-1.44l-2.73,4.73c.84.45,1.67.94,2.48,1.45Z"/><path class="cls-3" d="M71.84,53.45c-.87-.39-1.76-.76-2.65-1.1l-2.1,5c.9.34,1.79.71,2.66,1.1Z"/><rect class="cls-1" x="172.11" y="101.48" width="80.04" height="0.99"/><rect class="cls-1" x="172.11" y="97.51" width="80.04" height="0.99"/><rect class="cls-1" x="213.61" y="59.97" width="0.99" height="80.04"/><rect class="cls-1" x="209.64" y="59.97" width="0.99" height="80.04"/><rect class="cls-1" x="213.46" y="59.21" width="0.99" height="80.04" transform="translate(-21.69 89.43) rotate(-22.5)"/><rect class="cls-1" x="209.8" y="60.73" width="0.99" height="80.04" transform="translate(-22.55 88.14) rotate(-22.5)"/><rect class="cls-1" x="213.03" y="58.57" width="0.99" height="80.04" transform="translate(-7.17 179.86) rotate(-45)"/><rect class="cls-1" x="210.23" y="61.38" width="0.99" height="80.04" transform="translate(-9.98 178.7) rotate(-45)"/><rect class="cls-1" x="212.39" y="58.14" width="0.99" height="80.04" transform="translate(40.73 257.27) rotate(-67.5)"/><rect class="cls-1" x="210.87" y="61.81" width="0.99" height="80.04" transform="translate(36.41 258.14) rotate(-67.5)"/><rect class="cls-1" x="172.86" y="101.33" width="80.04" height="0.99" transform="translate(-22.76 89.22) rotate(-22.5)"/><rect class="cls-1" x="171.35" y="97.66" width="80.04" height="0.99" transform="translate(-21.47 88.36) rotate(-22.5)"/><rect class="cls-1" x="173.51" y="100.9" width="80.04" height="0.99" transform="translate(-9.16 180.69) rotate(-45)"/><rect class="cls-1" x="170.7" y="98.09" width="80.04" height="0.99" transform="translate(-7.99 177.88) rotate(-45)"/><rect class="cls-1" x="173.94" y="100.26" width="80.04" height="0.99" transform="translate(39 259.87) rotate(-67.5)"/><rect class="cls-1" x="170.27" y="98.74" width="80.04" height="0.99" transform="translate(38.14 255.54) rotate(-67.5)"/><path d="M212.12,49.72A50.27,50.27,0,1,0,262.4,100,50.27,50.27,0,0,0,212.12,49.72Zm0,89A38.69,38.69,0,1,1,250.81,100,38.69,38.69,0,0,1,212.12,138.68Z"/><path d="M212.12,56.5A43.49,43.49,0,1,0,255.62,100,43.49,43.49,0,0,0,212.12,56.5Zm0,82.18A38.69,38.69,0,1,1,250.81,100,38.69,38.69,0,0,1,212.12,138.68Z"/><path class="cls-1" d="M212.12,58.51A41.48,41.48,0,1,0,253.61,100,41.48,41.48,0,0,0,212.12,58.51Zm0,80.17A38.69,38.69,0,1,1,250.81,100,38.69,38.69,0,0,1,212.12,138.68Z"/><path class="cls-2" d="M212.12,60.08A39.91,39.91,0,1,0,252,100,39.91,39.91,0,0,0,212.12,60.08Zm0,78.6A38.69,38.69,0,1,1,250.81,100,38.69,38.69,0,0,1,212.12,138.68Z"/><path class="cls-3" d="M226.71,51.12c-.92-.27-1.84-.52-2.78-.74l-1.42,5.29c.94.22,1.87.46,2.78.74Z"/><path class="cls-3" d="M220.2,49.63c-.94-.15-1.89-.28-2.85-.38l-.71,5.44c1,.09,1.91.22,2.85.38Z"/><path class="cls-3" d="M210.69,49V54.5c.48,0,.95,0,1.43,0s1,0,1.44,0V49c-.48,0-.95,0-1.44,0S211.17,49,210.69,49Z"/><path class="cls-3" d="M204.76,55.07c.94-.16,1.89-.29,2.85-.38l-.72-5.44c-1,.1-1.9.23-2.85.38Z"/><path class="cls-3" d="M199,56.41c.91-.28,1.84-.52,2.78-.74l-1.42-5.29c-.94.22-1.86.47-2.78.74Z"/><path class="cls-3" d="M193.38,58.5c.87-.39,1.76-.76,2.66-1.1l-2.09-5c-.9.34-1.79.71-2.66,1.1Z"/><path class="cls-3" d="M188.13,61.31c.81-.51,1.64-1,2.49-1.45l-2.74-4.73c-.84.45-1.67.94-2.48,1.44Z"/><path class="cls-3" d="M183.28,64.77c.74-.61,1.51-1.19,2.29-1.75l-3.32-4.33c-.78.56-1.54,1.14-2.29,1.75Z"/><path class="cls-3" d="M178.94,68.84c.65-.7,1.33-1.38,2-2L177.12,63c-.7.66-1.38,1.34-2,2Z"/><path class="cls-3" d="M170.82,70.11l4.33,3.33c.57-.78,1.14-1.55,1.75-2.29l-4.33-3.32C172,68.57,171.39,69.34,170.82,70.11Z"/><path class="cls-3" d="M172,78.48c.46-.85.94-1.67,1.45-2.48l-4.73-2.74c-.51.82-1,1.64-1.45,2.49Z"/><path class="cls-3" d="M169.53,83.91c.34-.9.71-1.79,1.1-2.66l-5-2.09c-.39.87-.76,1.75-1.1,2.65Z"/><path class="cls-3" d="M167.8,89.6c.22-.93.46-1.86.74-2.77l-5.29-1.42c-.27.91-.52,1.84-.74,2.78Z"/><path class="cls-3" d="M166.82,95.48c.1-1,.22-1.91.38-2.85l-5.44-.72c-.15.94-.28,1.89-.38,2.85Z"/><path class="cls-3" d="M166.6,100c0-.48,0-.95,0-1.43h-5.48c0,.47,0,1,0,1.43s0,1,0,1.44h5.48C166.62,101,166.6,100.47,166.6,100Z"/><path class="cls-3" d="M161.77,108.07l5.43-.71c-.16-.94-.28-1.89-.38-2.85l-5.43.71C161.48,106.18,161.61,107.13,161.77,108.07Z"/><path class="cls-3" d="M163.25,114.58l5.29-1.42c-.28-.92-.52-1.84-.74-2.78l-5.29,1.42C162.73,112.73,163,113.66,163.25,114.58Z"/><path class="cls-3" d="M165.58,120.83l5-2.09c-.39-.88-.76-1.76-1.1-2.66l-5.05,2.09C164.82,119.07,165.19,120,165.58,120.83Z"/><path class="cls-3" d="M168.71,126.72l4.73-2.73c-.51-.81-1-1.64-1.45-2.49l-4.73,2.74C167.72,125.08,168.2,125.91,168.71,126.72Z"/><path class="cls-3" d="M172.57,132.15l4.33-3.32c-.61-.74-1.18-1.5-1.75-2.28l-4.33,3.32C171.39,130.65,172,131.41,172.57,132.15Z"/><path class="cls-3" d="M178.94,131.14,175.08,135c.66.7,1.34,1.38,2,2l3.85-3.85C180.27,132.52,179.59,131.84,178.94,131.14Z"/><path class="cls-3" d="M180,139.54c.75.61,1.51,1.19,2.29,1.75l3.32-4.33c-.78-.56-1.55-1.13-2.29-1.74Z"/><path class="cls-3" d="M185.4,143.41c.81.5,1.64,1,2.48,1.45l2.74-4.74q-1.27-.68-2.49-1.44Z"/><path class="cls-3" d="M191.29,146.53c.87.39,1.76.76,2.66,1.11l2.09-5c-.9-.34-1.79-.71-2.66-1.11Z"/><path class="cls-3" d="M197.54,148.86c.92.28,1.84.52,2.78.74l1.42-5.29c-.94-.21-1.87-.46-2.78-.73Z"/><path class="cls-3" d="M204,150.35c1,.15,1.9.28,2.86.38l.71-5.43c-1-.1-1.91-.23-2.85-.38Z"/><path class="cls-3" d="M213.56,151v-5.47c-.48,0-.95,0-1.44,0s-1,0-1.43,0V151c.48,0,.95,0,1.43,0S213.08,151,213.56,151Z"/><path class="cls-3" d="M219.49,144.92c-.94.15-1.89.28-2.85.38l.71,5.43c1-.1,1.91-.23,2.85-.38Z"/><path class="cls-3" d="M225.29,143.58c-.91.27-1.84.52-2.78.73l1.42,5.29c.94-.22,1.86-.46,2.78-.74Z"/><path class="cls-3" d="M230.87,141.48c-.87.4-1.76.77-2.66,1.11l2.09,5c.9-.35,1.78-.72,2.66-1.11Z"/><path class="cls-3" d="M236.12,138.68q-1.22.76-2.49,1.44l2.74,4.74c.84-.46,1.67-1,2.48-1.45Z"/><path class="cls-3" d="M241,135.22c-.74.6-1.51,1.18-2.29,1.74l3.32,4.33c.78-.56,1.54-1.14,2.29-1.75Z"/><path class="cls-3" d="M245.31,131.14c-.65.7-1.33,1.38-2,2l3.85,3.85c.7-.65,1.38-1.33,2-2Z"/><path class="cls-3" d="M253.42,129.87l-4.32-3.32c-.57.78-1.14,1.54-1.75,2.28l4.33,3.32Q252.58,131,253.42,129.87Z"/><path class="cls-3" d="M252.26,121.5c-.46.85-.94,1.67-1.45,2.49l4.73,2.73c.51-.82,1-1.64,1.45-2.49Z"/><path class="cls-3" d="M254.72,116.08c-.34.9-.71,1.78-1.11,2.66l5.05,2.09c.4-.88.77-1.76,1.11-2.66Z"/><path class="cls-3" d="M256.45,110.38c-.22.94-.46,1.86-.74,2.78l5.29,1.41c.27-.91.51-1.84.74-2.77Z"/><path class="cls-3" d="M257.43,104.5c-.1,1-.23,1.92-.38,2.86l5.43.71c.15-.94.29-1.89.38-2.85Z"/><path class="cls-3" d="M257.65,100c0,.48,0,1,0,1.44h5.47c0-.48,0-1,0-1.44s0-1,0-1.43h-5.47C257.63,99,257.65,99.51,257.65,100Z"/><path class="cls-3" d="M262.48,91.91l-5.43.72c.15.94.28,1.89.38,2.85l5.43-.72C262.77,93.8,262.63,92.86,262.48,91.91Z"/><path class="cls-3" d="M261,85.41l-5.29,1.42c.28.91.52,1.84.74,2.77l5.29-1.41C261.51,87.25,261.27,86.32,261,85.41Z"/><path class="cls-3" d="M258.66,79.16l-5.05,2.09c.4.87.77,1.76,1.11,2.66l5-2.1C259.43,80.91,259.06,80,258.66,79.16Z"/><path class="cls-3" d="M257,75.75c-.46-.85-.94-1.67-1.45-2.49L250.81,76c.51.81,1,1.63,1.44,2.48Z"/><path class="cls-3" d="M251.68,67.83l-4.33,3.32c.61.74,1.18,1.51,1.74,2.29l4.33-3.33C252.86,69.34,252.28,68.57,251.68,67.83Z"/><path class="cls-3" d="M245.31,68.84,249.17,65c-.66-.69-1.34-1.37-2-2l-3.85,3.86C244,67.46,244.65,68.14,245.31,68.84Z"/><path class="cls-3" d="M244.29,60.44c-.75-.6-1.51-1.18-2.29-1.75L238.68,63c.78.56,1.55,1.14,2.29,1.75Z"/><path class="cls-3" d="M238.85,56.57c-.81-.5-1.64-1-2.48-1.44l-2.74,4.73c.85.45,1.68.94,2.49,1.45Z"/><path class="cls-3" d="M233,53.45c-.88-.39-1.76-.76-2.66-1.1l-2.09,5c.9.34,1.78.71,2.66,1.1Z"/><rect class="cls-2" x="93.22" y="7.42" width="5.14" height="26.52" transform="translate(-2.21 20.79) rotate(-12.25)"/><rect class="cls-2" x="188.73" y="11.52" width="5.14" height="13.37" transform="translate(0.1 37.41) rotate(-11.17)"/><path d="M115.17,111.87a2,2,0,0,1-.53-.07,2.2,2.2,0,0,1-1.6-2.67l5.5-21.95a2.2,2.2,0,0,1,4.27,1.07l-5.5,22A2.21,2.21,0,0,1,115.17,111.87Z"/><path d="M127.33,87.38a2.94,2.94,0,0,1-2.93,2.93h-8.2a2.93,2.93,0,1,1,0-5.86h8.2A2.94,2.94,0,0,1,127.33,87.38Z"/><path class="cls-4" d="M124.4,84.45h-8.2a2.94,2.94,0,0,0-2.94,2.93h14.07A2.94,2.94,0,0,0,124.4,84.45Z"/><path class="cls-2" d="M113.67,85.92h13.25a2.93,2.93,0,0,0-2.52-1.47h-8.2A2.94,2.94,0,0,0,113.67,85.92Z"/><path d="M217.29,100a5.17,5.17,0,1,1-5.17-5.16A5.16,5.16,0,0,1,217.29,100Z"/><rect class="cls-5" x="113.4" y="103.32" width="1.47" height="1.83" transform="translate(-13.27 191.76) rotate(-76.89)"/><path class="cls-5" d="M112.37,104.58l-3.51-.82.33-1.43,3.51.82Zm-4.21-1-3.51-.82.33-1.43,3.51.82Zm-4.22-1-3.51-.82.34-1.43,3.51.82Zm-4.21-1-3.51-.81.33-1.43,3.51.82Zm-4.21-1L92,99.83l.33-1.42,3.51.81Zm-4.21-1-3.52-.82.34-1.43,3.51.82Zm-4.22-1-3.51-.82.33-1.43,3.51.82Zm-4.21-1-3.51-.82.33-1.43,3.51.82Zm-4.21-1-3.52-.81.34-1.43L79,95.3Zm-4.22-1-3.51-.82.33-1.42,3.52.81Zm-4.21-1-3.51-.82.33-1.43,3.51.82Zm-4.21-1L62.52,93l.33-1.43,3.51.82Zm-4.22-1L58.3,92l.34-1.43,3.51.82Zm-4.21-1L54.09,91l.33-1.43,3.51.82Z"/><rect class="cls-5" x="51.93" y="88.99" width="1.47" height="1.83" transform="translate(-46.84 120.83) rotate(-76.91)"/><path class="cls-5" d="M50.33,126.93l0-.13,1.36-.55,0,.13Zm-.33-.81-1.38-3.4,1.36-.55,1.38,3.4ZM48.34,122,47,118.64l1.36-.55,1.38,3.4ZM46.69,118l-1.38-3.4,1.36-.55,1.38,3.4ZM45,113.88l-1.38-3.4,1.36-.55,1.38,3.4Zm-1.65-4.08L42,106.4l1.36-.55,1.38,3.4Z"/><path class="cls-5" d="M53.64,129.31l-.3-1.44,1.22-.25.3,1.43Zm1.94-.41-.3-1.44,3.59-.75.3,1.43Zm4.31-.91-.31-1.44,3.59-.76.31,1.44Zm4.31-.91-.31-1.44,3.59-.76.31,1.44Zm4.3-.91-.3-1.44,3.59-.76.31,1.44Zm4.31-.91-.3-1.44,3.59-.76.3,1.44Zm4.31-.91-.3-1.44,3.59-.76.3,1.44Zm4.31-.91-.3-1.44,3.59-.76.3,1.44Zm4.31-.91-.31-1.44,3.59-.76.31,1.44Zm4.31-.91-.31-1.44,3.59-.76.31,1.44Zm4.3-.91-.3-1.44,3.59-.76L98,120Zm4.31-.91-.3-1.44,3.59-.76.3,1.44Zm4.31-.91-.3-1.44,3.59-.76.3,1.44Zm4.31-.91-.3-1.44,3.59-.76.3,1.44Zm4.31-.91-.31-1.44,3.59-.76.31,1.44Z"/><polygon points="51.01 88.95 52.61 87.83 53.86 89.33 55.7 88.66 56.53 90.43 58.47 90.26 58.81 92.19 60.74 92.52 60.57 94.47 62.34 95.3 61.67 97.14 63.17 98.39 62.05 99.99 63.17 101.59 61.67 102.85 62.34 104.69 60.57 105.51 60.74 107.46 58.81 107.8 58.47 109.72 56.53 109.55 55.7 111.33 53.86 110.66 52.61 112.15 51.01 111.03 49.41 112.15 48.15 110.66 46.31 111.33 45.49 109.55 43.54 109.72 43.2 107.8 41.27 107.46 41.44 105.51 39.67 104.69 40.34 102.85 38.84 101.59 39.97 99.99 38.84 98.39 40.34 97.14 39.67 95.3 41.44 94.47 41.27 92.52 43.2 92.19 43.54 90.26 45.49 90.43 46.31 88.66 48.15 89.33 49.41 87.83 51.01 88.95"/><path class="cls-3" d="M57.14,100A6.14,6.14,0,1,1,51,93.86,6.14,6.14,0,0,1,57.14,100Z"/><path class="cls-4" d="M53.49,127.85a1.77,1.77,0,0,1-1.05-.33A1.83,1.83,0,0,1,52,125a14.31,14.31,0,0,0,2-7.5c0-2.28-2.87-11.57-4.67-16.89a1.83,1.83,0,1,1,3.47-1.18c.5,1.47,4.86,14.43,4.87,18.06A17.72,17.72,0,0,1,55,127.07,1.82,1.82,0,0,1,53.49,127.85Z"/><polygon points="53.49 121.76 54.02 121.39 54.44 121.89 55.05 121.66 55.33 122.25 55.97 122.2 56.09 122.84 56.73 122.95 56.67 123.6 57.26 123.87 57.04 124.49 57.54 124.9 57.16 125.44 57.54 125.97 57.04 126.39 57.26 127 56.67 127.28 56.73 127.92 56.09 128.04 55.97 128.68 55.33 128.62 55.05 129.21 54.44 128.99 54.02 129.49 53.49 129.11 52.95 129.49 52.54 128.99 51.92 129.21 51.65 128.62 51 128.68 50.89 128.04 50.25 127.92 50.3 127.28 49.71 127 49.94 126.39 49.44 125.97 49.81 125.44 49.44 124.9 49.94 124.49 49.71 123.87 50.3 123.6 50.25 122.95 50.89 122.84 51 122.2 51.65 122.25 51.92 121.66 52.54 121.89 52.95 121.39 53.49 121.76"/><path class="cls-6" d="M115.24,113.58a3.3,3.3,0,0,1-2.36-5.61l78.49-80.29a3.3,3.3,0,1,1,4.72,4.62L117.6,112.59A3.28,3.28,0,0,1,115.24,113.58Z"/><path class="cls-7" d="M193.73,30,196,27.63h0a3.29,3.29,0,0,0-4.67.05L112.88,108a3.3,3.3,0,0,0,0,4.65l2.32-2.34Z"/><path class="cls-6" d="M51,103.3a3.31,3.31,0,0,1-2.52-5.44L97.84,39.63A3.31,3.31,0,0,1,100,38.49l93.36-11.78a3.3,3.3,0,0,1,.83,6.55L102.05,44.88,53.53,102.13A3.32,3.32,0,0,1,51,103.3Z"/><path class="cls-7" d="M100.36,41.76,193.73,30l3.27-.44a3.3,3.3,0,0,0-3.69-2.84L100,38.49a3.31,3.31,0,0,0-2.11,1.14L48.49,97.86a3.3,3.3,0,0,0,.38,4.65l.07,0L51,100Z"/><path class="cls-6" d="M115.24,113.58a3,3,0,0,1-.52,0L50.48,103.25a3.3,3.3,0,0,1,1.05-6.52L111,106.25,95.59,35.34a3.3,3.3,0,0,1,6.45-1.4l16.43,75.64a3.3,3.3,0,0,1-3.23,4Z"/><path class="cls-7" d="M51,100l64.23,10.29L98.82,34.64l-.67-3.23h0a3.29,3.29,0,0,0-2.53,3.92L111,106.25,51.53,96.73a3.29,3.29,0,0,0-3.76,2.66Z"/><path class="cls-7" d="M212.13,103.3a3.28,3.28,0,0,1-2.62-1.29l-6.13-7.92a3.27,3.27,0,0,1-.63-1.38L189,22.93a3.3,3.3,0,0,1,6.48-1.28l13.63,69L214.74,98a3.31,3.31,0,0,1-2.61,5.33Z"/><path class="cls-6" d="M212.13,103.3a3.3,3.3,0,0,0,2-.7L206,92.07l-13.3-67.32-1.1-5.7h0a3.3,3.3,0,0,0-2.6,3.88l13.78,69.78a3.27,3.27,0,0,0,.63,1.38l6.13,7.92A3.28,3.28,0,0,0,212.13,103.3Z"/><path d="M52.41,100a1.41,1.41,0,1,1-1.4-1.4A1.41,1.41,0,0,1,52.41,100Z"/><path class="cls-4" d="M54.89,125.44a1.41,1.41,0,1,1-1.4-1.41A1.4,1.4,0,0,1,54.89,125.44Z"/><path class="cls-4" d="M115,96.25a14,14,0,1,0,14,14A14,14,0,0,0,115,96.25Zm-8.58,6.09a2.8,2.8,0,1,1,.17,4A2.8,2.8,0,0,1,106.45,102.34Zm1,13.19a2.79,2.79,0,1,1,1.83-3.5A2.8,2.8,0,0,1,107.43,115.53Zm8.41,3.92a2.8,2.8,0,1,1-2.13-3.33A2.79,2.79,0,0,1,115.84,119.45Zm.5-15.14a2.8,2.8,0,1,1,3.34-2.12A2.79,2.79,0,0,1,116.34,104.31Zm7.26,13.77a2.8,2.8,0,1,1-.16-4A2.79,2.79,0,0,1,123.6,118.08Zm.7-7.85a2.8,2.8,0,1,1,1.83-3.51A2.81,2.81,0,0,1,124.3,110.23Z"/><path d="M120.79,110.21a5.77,5.77,0,1,1-5.76-5.76A5.76,5.76,0,0,1,120.79,110.21Z"/><path class="cls-4" d="M119.11,110.21a4.09,4.09,0,1,1-4.08-4.08A4.09,4.09,0,0,1,119.11,110.21Z"/><path d="M109.52,134.37a2,2,0,0,1-.53-.07,2.2,2.2,0,0,1-1.6-2.67l5.5-21.95a2.2,2.2,0,0,1,4.27,1.07l-5.5,21.95A2.21,2.21,0,0,1,109.52,134.37Z"/><path d="M116.56,133.46a2.94,2.94,0,0,1-2.94,2.94h-8.2a2.94,2.94,0,0,1,0-5.87h8.2A2.94,2.94,0,0,1,116.56,133.46Z"/><path class="cls-4" d="M113.62,130.53h-8.2a2.94,2.94,0,0,0-2.93,2.93h14.07A2.94,2.94,0,0,0,113.62,130.53Z"/><path class="cls-2" d="M102.9,132h13.25a2.94,2.94,0,0,0-2.53-1.47h-8.2A2.93,2.93,0,0,0,102.9,132Z"/><path d="M213.8,100a1.68,1.68,0,1,1-1.68-1.67A1.68,1.68,0,0,1,213.8,100Z"/><rect class="cls-3" x="94.03" y="31.35" width="8.97" height="3.78" transform="translate(-4.84 21.91) rotate(-12.39)"/><rect class="cls-3" x="187.5" y="18.85" width="8.97" height="3.78" transform="translate(-0.44 36.9) rotate(-10.97)"/><path d="M83.58,4.36A15,15,0,0,0,80.27,11c-.46,2.76-.35,10,9.38,10.68,8.32.62,12.18-4.87,18.09-5.94,6.18-1.11,16.52-3.34,15.06-10.88A168.27,168.27,0,0,1,99.54,6.34C93,6.34,83.58,4.36,83.58,4.36Z"/><path class="cls-3" d="M83.58,4.36a16.07,16.07,0,0,0-2.8,4.73c7.47,1.92,21.16,3.21,42.16-2.85a7.51,7.51,0,0,0-.14-1.38A168.27,168.27,0,0,1,99.54,6.34C93,6.34,83.58,4.36,83.58,4.36Z"/><path class="cls-3" d="M189.67,14.59l-.07-5.14,0,2.57,0-2.57a19.27,19.27,0,0,0,13.12-6.54l3.94,3.29A24.19,24.19,0,0,1,189.67,14.59Z"/><path d="M188.9,7.09h2.2A2.94,2.94,0,0,1,194,10v3.18a2.93,2.93,0,0,1-2.93,2.93h-2.2A2.94,2.94,0,0,1,186,13.21V10a2.94,2.94,0,0,1,2.94-2.94Z" transform="translate(1.6 38.81) rotate(-11.71)"/><circle cx="204.5" cy="4.68" r="4.68"/><path class="cls-2" d="M206.45,4.68a2,2,0,1,1-1.95-2A2,2,0,0,1,206.45,4.68Z"/></g></g></svg>