<svg xmlns="http://www.w3.org/2000/svg" viewBox="0 0 63.31 33.24"><defs><style>.cls-1{fill:#e22b07;}.cls-2{fill:#ff4c22;}.cls-3{fill:#f7852f;}.cls-4{fill:#606060;}</style></defs><g id="Capa_2" data-name="Capa 2"><g id="Layer_1" data-name="Layer 1"><path class="cls-1" d="M40.77,5.23l-1.26-.77C38.89.52,43.89.07,43.89.07c6.69-.94,18.54,8.45,18.54,8.45l-.92,3.6S50.39,2,45.53,2C42,2,41,3.93,40.77,5.23Z"/><path class="cls-2" d="M58.34,12.67S61.82,11.18,62,8c3,3,0,8.29,0,8.29Z"/><path class="cls-1" d="M22.53,5.23l1.26-.77C24.42.52,19.42.07,19.42.07,12.73-.87.88,8.52.88,8.52l.92,3.6S12.92,2,17.78,2C21.34,2,22.29,3.93,22.53,5.23Z"/><path class="cls-2" d="M5,12.67S1.48,11.18,1.35,8c-3,3,0,8.29,0,8.29Z"/><path d="M1.47,22.54c-1.1-2.33-1.07-5.46.06-7s2-1.86,4.52-1.64l17.8,1.55a6.19,6.19,0,0,1,5.27,4.4C30,23.56,26.41,30,26.41,30a6.78,6.78,0,0,1-6.78,3.17S6,29.9,1.47,22.54Z"/><path d="M61.83,22.54c1.11-2.33,1.08-5.46-.06-7s-2-1.86-4.51-1.64l-17.8,1.55a6.19,6.19,0,0,0-5.27,4.4C33.27,23.56,36.89,30,36.89,30a6.8,6.8,0,0,0,6.79,3.17S57.29,29.9,61.83,22.54Z"/><path class="cls-1" d="M58.89,12.12s-17.06,1.21-27.24,1.39c-10.18-.18-27.23-1.39-27.23-1.39a3.3,3.3,0,0,0-3.29,3.29v.86a3.89,3.89,0,0,1,.4-.7c1.14-1.51,2-1.86,4.52-1.64l17.8,1.55a6.19,6.19,0,0,1,5.27,4.4s0,.05,0,.07h5s0-.05,0-.07a6.19,6.19,0,0,1,5.27-4.4l17.8-1.55c2.52-.22,3.38.13,4.51,1.64a3,3,0,0,1,.4.7v-.86A3.3,3.3,0,0,0,58.89,12.12Z"/><path class="cls-3" d="M29.91,18.07a3.69,3.69,0,0,1,1.74-.47,3.63,3.63,0,0,1,1.74.47,7.83,7.83,0,0,1,3.48-3.3c-1.84.07-3.6.12-5.19.15h-.05c-1.59,0-3.35-.08-5.2-.15A7.78,7.78,0,0,1,29.91,18.07Z"/><path class="cls-2" d="M28.56,27.78l1.35-5.33c.32-1.24,1.24-2,1.74-2s1.43.79,1.74,2l1.36,5.33A4.44,4.44,0,0,0,37,28.91L35.21,22c-.49-1.92-2.05-3.44-3.56-3.44S28.58,20.06,28.09,22l-1.75,6.93A4.49,4.49,0,0,0,28.56,27.78Z"/><path class="cls-4" d="M47.4,14.79,37.17,30.41a6.41,6.41,0,0,0,1.22,1.28L49.58,14.6Z"/><path class="cls-4" d="M61.77,15.57c-1.13-1.51-2-1.86-4.51-1.64l-5.43.47L39.9,32.61a6.34,6.34,0,0,0,3.78.53,49.39,49.39,0,0,0,9.43-3.5L62,16A3.12,3.12,0,0,0,61.77,15.57Z"/><path class="cls-4" d="M16,32.05,26.33,16.31a5.89,5.89,0,0,0-2.48-.83H23.7L13.46,31.1C14.38,31.47,15.24,31.79,16,32.05Z"/><path class="cls-4" d="M8.83,28.91,18,15l-6-.52L4.44,25.91A26.59,26.59,0,0,0,8.83,28.91Z"/></g></g></svg>