<svg xmlns="http://www.w3.org/2000/svg" viewBox="0 0 83.16 83.16"><defs><style>.cls-1{fill:#bfbfbf;}.cls-2{fill:#444;}.cls-3{fill:#9e9e9e;}</style></defs><g id="Capa_2" data-name="Capa 2"><g id="Layer_1" data-name="Layer 1"><rect class="cls-1" x="6.99" y="42.81" width="66.2" height="0.82"/><rect class="cls-1" x="6.99" y="39.53" width="66.2" height="0.82"/><rect class="cls-1" x="41.32" y="8.48" width="0.82" height="66.2"/><rect class="cls-1" x="38.04" y="8.48" width="0.82" height="66.2"/><rect class="cls-1" x="41.2" y="7.85" width="0.82" height="66.2" transform="translate(-12.5 19.04) rotate(-22.5)"/><rect class="cls-1" x="38.16" y="9.11" width="0.82" height="66.2" transform="translate(-13.22 17.97) rotate(-22.5)"/><rect class="cls-1" x="40.84" y="7.32" width="0.82" height="66.2" transform="translate(-16.5 41.01) rotate(-45)"/><rect class="cls-1" x="38.52" y="9.64" width="0.82" height="66.2" transform="translate(-18.82 40.04) rotate(-45)"/><rect class="cls-1" x="40.31" y="6.96" width="0.82" height="66.2" transform="translate(-11.88 62.35) rotate(-67.5)"/><rect class="cls-1" x="39.05" y="10" width="0.82" height="66.2" transform="translate(-15.45 63.06) rotate(-67.5)"/><rect class="cls-1" x="7.62" y="42.68" width="66.2" height="0.82" transform="translate(-13.39 18.86) rotate(-22.5)"/><rect class="cls-1" x="6.36" y="39.65" width="66.2" height="0.82" transform="translate(-12.33 18.15) rotate(-22.5)"/><rect class="cls-1" x="8.15" y="42.33" width="66.2" height="0.82" transform="translate(-18.14 41.69) rotate(-45)"/><rect class="cls-1" x="5.83" y="40.01" width="66.2" height="0.82" transform="translate(-17.18 39.37) rotate(-45)"/><rect class="cls-1" x="8.51" y="41.8" width="66.2" height="0.82" transform="translate(-13.31 64.49) rotate(-67.5)"/><rect class="cls-1" x="5.47" y="40.54" width="66.2" height="0.82" transform="translate(-14.02 60.92) rotate(-67.5)"/><path d="M41.58,0A41.58,41.58,0,1,0,83.16,41.58,41.58,41.58,0,0,0,41.58,0Zm0,73.58a32,32,0,1,1,32-32A32,32,0,0,1,41.58,73.58Z"/><path d="M41.58,5.61a36,36,0,1,0,36,36A36,36,0,0,0,41.58,5.61Zm0,68a32,32,0,1,1,32-32A32,32,0,0,1,41.58,73.58Z"/><path class="cls-1" d="M41.58,7.27A34.31,34.31,0,1,0,75.89,41.58,34.31,34.31,0,0,0,41.58,7.27Zm0,66.31a32,32,0,1,1,32-32A32,32,0,0,1,41.58,73.58Z"/><path class="cls-2" d="M40.19,1.87l1.39,0,1.38,0V3.53l-1.38,0-1.39,0Z"/><path class="cls-2" d="M47.92,4.05c-.91-.16-1.83-.28-2.75-.36L45.39,2c.91.08,1.83.2,2.74.36Z"/><path class="cls-2" d="M61.79,9.34c-.78-.49-1.58-1-2.4-1.39l.84-1.44c.81.43,1.61.9,2.39,1.39Z"/><path class="cls-2" d="M65.82,12.26c-.71-.6-1.45-1.16-2.19-1.69l1-1.32c.75.53,1.48,1.1,2.2,1.69Z"/><path class="cls-2" d="M57.42,7c-.83-.38-1.69-.73-2.56-1.06l.64-1.54c.85.33,1.71.68,2.55,1.07Z"/><path class="cls-2" d="M52.76,5.19q-1.34-.41-2.67-.72l.43-1.6c.9.2,1.8.44,2.67.71Z"/><path class="cls-2" d="M16.32,10.94c.71-.59,1.45-1.16,2.2-1.69l1,1.32c-.74.53-1.48,1.09-2.2,1.69Z"/><path class="cls-2" d="M9.25,18.52c.54-.75,1.1-1.49,1.69-2.2l1.32,1c-.59.72-1.16,1.45-1.69,2.2Z"/><path class="cls-2" d="M35,2.4c.91-.16,1.83-.28,2.75-.36L38,3.69c-.92.08-1.84.2-2.75.36Z"/><path class="cls-2" d="M20.53,7.9c.79-.49,1.59-1,2.4-1.39L23.76,8c-.81.44-1.62.9-2.39,1.39Z"/><path class="cls-2" d="M25.11,5.43C26,5,26.8,4.68,27.66,4.36L28.3,5.9c-.87.33-1.73.68-2.56,1.06Z"/><path class="cls-2" d="M72.59,19.53c-.53-.75-1.1-1.48-1.69-2.2l1.32-1c.59.71,1.15,1.45,1.69,2.2Z"/><path class="cls-2" d="M12.53,14.49c.63-.67,1.29-1.33,2-2l1.18,1.18c-.67.63-1.33,1.28-2,2Z"/><path class="cls-2" d="M14.49,70.62c-.67-.62-1.33-1.28-2-2l1.18-1.18c.63.68,1.29,1.33,2,2Z"/><path class="cls-2" d="M1.87,43c0-.48,0-.93,0-1.38s0-.91,0-1.39H3.53c0,.47,0,.93,0,1.39s0,.92,0,1.38Z"/><path class="cls-2" d="M67.49,69.44c.67-.62,1.33-1.28,2-2l1.18,1.18c-.63.67-1.29,1.33-2,2Z"/><path class="cls-2" d="M79.62,43q0-.7,0-1.38c0-.45,0-.92,0-1.39h1.67c0,.48,0,.94,0,1.39s0,.9,0,1.38Z"/><path class="cls-2" d="M69.45,15.67c-.63-.68-1.29-1.33-2-2l1.18-1.18c.67.63,1.33,1.29,2,2Z"/><path class="cls-2" d="M6.51,22.93c.43-.81.9-1.61,1.39-2.4l1.44.84c-.49.77-.95,1.57-1.39,2.39Z"/><path class="cls-2" d="M77.25,28.3c-.32-.87-.68-1.73-1.06-2.56l1.54-.63c.39.84.74,1.69,1.06,2.55Z"/><path class="cls-2" d="M75.21,23.76c-.44-.81-.9-1.62-1.39-2.4l1.44-.83c.49.78.95,1.58,1.39,2.4Z"/><path class="cls-2" d="M79.47,38c-.09-.92-.21-1.84-.36-2.75L80.76,35c.15.91.27,1.83.36,2.75Z"/><path class="cls-2" d="M78.68,33.07c-.2-.89-.44-1.79-.72-2.68L79.58,30c.26.88.5,1.78.71,2.68Z"/><path class="cls-2" d="M30,3.58c.88-.27,1.77-.51,2.68-.71l.43,1.6c-.89.21-1.79.45-2.68.72Z"/><path class="cls-2" d="M54.86,77.25c.87-.32,1.73-.68,2.56-1.06l.63,1.54c-.84.39-1.7.74-2.55,1.06Z"/><path class="cls-2" d="M59.4,75.21c.81-.44,1.62-.9,2.39-1.39l.83,1.44c-.78.49-1.58,1-2.39,1.39Z"/><path class="cls-2" d="M63.63,72.59c.74-.53,1.48-1.1,2.19-1.69l1,1.32c-.71.59-1.45,1.15-2.2,1.69Z"/><path class="cls-2" d="M50.09,78.68c.89-.2,1.78-.44,2.67-.71l.43,1.61c-.87.26-1.77.51-2.67.71Z"/><path class="cls-2" d="M41.58,81.31c-.45,0-.9,0-1.39,0V79.62l1.39,0q.69,0,1.38,0v1.67C42.48,81.31,42,81.31,41.58,81.31Z"/><path class="cls-2" d="M45.17,79.47c.92-.09,1.84-.21,2.75-.36l.21,1.65c-.9.15-1.82.27-2.74.36Z"/><path class="cls-2" d="M78,52.76c.27-.89.51-1.78.71-2.67l1.61.43c-.21.9-.45,1.8-.71,2.67Z"/><path class="cls-2" d="M79.11,47.92c.15-.91.27-1.83.36-2.75l1.65.22c-.09.92-.21,1.84-.36,2.74Z"/><path class="cls-2" d="M37.77,81.12c-.92-.09-1.84-.21-2.75-.36l.22-1.65c.91.15,1.82.27,2.75.36Z"/><path class="cls-2" d="M4.36,27.66C4.68,26.8,5,26,5.43,25.11L7,25.74c-.37.83-.73,1.68-1.06,2.56Z"/><path class="cls-2" d="M70.9,65.82c.6-.72,1.16-1.45,1.69-2.19l1.32,1c-.54.75-1.1,1.48-1.69,2.19Z"/><path class="cls-2" d="M73.82,61.79c.49-.78,1-1.58,1.39-2.4l1.44.84c-.43.8-.9,1.61-1.39,2.39Z"/><path class="cls-2" d="M76.19,57.41c.38-.82.74-1.68,1.06-2.56l1.54.65c-.32.86-.68,1.71-1.06,2.55Z"/><path class="cls-2" d="M3.58,53.19c-.27-.87-.51-1.77-.71-2.67l1.6-.43q.32,1.33.72,2.67Z"/><path class="cls-2" d="M2.4,48.13c-.16-.9-.28-1.82-.36-2.74l1.65-.22c.08.92.21,1.84.36,2.75Z"/><path class="cls-2" d="M2.87,32.64c.2-.9.44-1.8.71-2.68l1.61.43c-.27.89-.51,1.79-.72,2.68Z"/><path class="cls-2" d="M2,37.77c.08-.92.2-1.84.36-2.75l1.65.22c-.15.9-.28,1.82-.36,2.75Z"/><path class="cls-2" d="M5.43,58.05c-.39-.84-.75-1.7-1.07-2.55l1.54-.65c.33.88.68,1.74,1.06,2.56Z"/><path class="cls-2" d="M18.52,73.91c-.75-.54-1.49-1.1-2.2-1.69l1-1.32c.72.59,1.46,1.16,2.2,1.69Z"/><path class="cls-2" d="M27.66,78.79c-.86-.32-1.72-.68-2.56-1.06l.64-1.54c.83.38,1.68.74,2.56,1.06Z"/><path class="cls-2" d="M7.9,62.62c-.5-.78-1-1.59-1.39-2.39L8,59.39c.43.82.9,1.62,1.39,2.4Z"/><path class="cls-2" d="M22.93,76.65c-.81-.44-1.61-.9-2.4-1.39l.84-1.44c.77.48,1.57,1,2.39,1.38Z"/><path class="cls-2" d="M10.94,66.84c-.59-.72-1.15-1.45-1.69-2.2l1.32-1c.53.74,1.09,1.47,1.69,2.19Z"/><path class="cls-2" d="M32.64,80.29c-.9-.2-1.8-.45-2.68-.71L30.4,78c.88.27,1.78.51,2.67.71Z"/><path class="cls-3" d="M41.58,8.57a33,33,0,1,0,33,33A33,33,0,0,0,41.58,8.57Zm0,65a32,32,0,1,1,32-32A32,32,0,0,1,41.58,73.58Z"/></g></g></svg>